<svg width="52" height="54" viewBox="0 0 52 54" fill="none" xmlns="http://www.w3.org/2000/svg">
<path d="M30.5902 0.345901H24.2636C23.7295 0.345901 23.2964 0.778928 23.2964 1.31309V7.63967C23.2964 8.17383 23.7295 8.60686 24.2636 8.60686H30.5902C31.1244 8.60686 31.5574 8.17383 31.5574 7.63967V1.31309C31.5574 0.778928 31.1244 0.345901 30.5902 0.345901Z" fill="#00BD84"/>
<path d="M20.8425 0.345901H14.5159C13.9818 0.345901 13.5488 0.778928 13.5488 1.31309V7.63967C13.5488 8.17383 13.9818 8.60686 14.5159 8.60686H20.8425C21.3767 8.60686 21.8097 8.17383 21.8097 7.63967V1.31309C21.8097 0.778928 21.3767 0.345901 20.8425 0.345901Z" fill="#00BD84"/>
<path d="M34.0114 18.5963H40.338C40.8722 18.5963 41.3052 18.1633 41.3052 17.6292V11.3026C41.3052 10.7684 40.8722 10.3354 40.338 10.3354L34.0114 10.3354C33.4773 10.3354 33.0442 10.7684 33.0442 11.3026V17.6292C33.0442 18.1633 33.4773 18.5963 34.0114 18.5963Z" fill="#00BD84"/>
<path d="M34.0114 8.60676L40.338 8.60676C40.8722 8.60676 41.3052 8.17373 41.3052 7.63957V1.31299C41.3052 0.778827 40.8722 0.345799 40.338 0.345799L34.0114 0.345799C33.4773 0.345799 33.0442 0.778827 33.0442 1.31299V7.63957C33.0442 8.17373 33.4773 8.60676 34.0114 8.60676Z" fill="#00BD84"/>
<path d="M43.7595 8.60655L50.086 8.60655C50.6202 8.60655 51.0532 8.17353 51.0532 7.63936V1.31279C51.0532 0.778621 50.6202 0.345593 50.086 0.345593L43.7595 0.345593C43.2253 0.345593 42.7923 0.778621 42.7923 1.31279V7.63936C42.7923 8.17353 43.2253 8.60655 43.7595 8.60655Z" fill="#00BD84"/>
<path d="M43.7591 18.5963H50.0857C50.6199 18.5963 51.0529 18.1633 51.0529 17.6292V11.3026C51.0529 10.7684 50.6199 10.3354 50.0857 10.3354L43.7591 10.3354C43.225 10.3354 42.7919 10.7684 42.7919 11.3026V17.6292C42.7919 18.1633 43.225 18.5963 43.7591 18.5963Z" fill="#00BD84"/>
<path d="M32.0772 18.5962H25.7506C25.2165 18.5962 24.7834 19.0293 24.7834 19.5634V25.89C24.7834 26.4242 25.2165 26.8572 25.7506 26.8572H32.0772C32.6114 26.8572 33.0444 26.4242 33.0444 25.89V19.5634C33.0444 19.0293 32.6114 18.5962 32.0772 18.5962Z" fill="#00BD84"/>
<path d="M50.0863 19.7584H43.7597C43.2255 19.7584 42.7925 20.1915 42.7925 20.7256V27.0522C42.7925 27.5864 43.2255 28.0194 43.7597 28.0194H50.0863C50.6204 28.0194 51.0535 27.5864 51.0535 27.0522V20.7256C51.0535 20.1915 50.6204 19.7584 50.0863 19.7584Z" fill="#00BD84"/>
<path d="M50.0863 29.1806H43.7597C43.2255 29.1806 42.7925 29.6136 42.7925 30.1478V36.4744C42.7925 37.0085 43.2255 37.4416 43.7597 37.4416H50.0863C50.6204 37.4416 51.0535 37.0085 51.0535 36.4744V30.1478C51.0535 29.6136 50.6204 29.1806 50.0863 29.1806Z" fill="#00BD84"/>
<path d="M17.4897 36.2803H23.8163C24.3504 36.2803 24.7834 35.8472 24.7834 35.3131V28.9865C24.7834 28.4523 24.3504 28.0193 23.8163 28.0193H17.4897C16.9555 28.0193 16.5225 28.4523 16.5225 28.9865V35.3131C16.5225 35.8472 16.9555 36.2803 17.4897 36.2803Z" fill="#00BD84"/>
<path d="M9.22863 44.7584H15.5552C16.0894 44.7584 16.5224 44.3254 16.5224 43.7912V37.4647C16.5224 36.9305 16.0894 36.4975 15.5552 36.4975H9.22863C8.69447 36.4975 8.26144 36.9305 8.26144 37.4647V43.7912C8.26144 44.3254 8.69447 44.7584 9.22863 44.7584Z" fill="#00BD84"/>
<path d="M7.29384 53.0136H1.13795C0.512115 53.0136 7.34329e-05 52.5019 7.34329e-05 51.8765V45.8954C7.34329e-05 45.27 0.512115 44.7583 1.13795 44.7583H7.29384C7.82864 44.7583 8.26103 45.1904 8.26103 45.7249V52.0528C8.26103 52.5872 7.82864 53.0193 7.29384 53.0193V53.0136Z" fill="#00BD84"/>
</svg>
