<svg width="313" height="332" viewBox="0 0 313 332" fill="none" xmlns="http://www.w3.org/2000/svg">
<line x1="39.9609" y1="74.394" x2="39.9643" y2="210.924" stroke="#6CC481" stroke-opacity="0.2"/>
<line x1="165.508" y1="95.501" x2="14.3268" y2="95.501" stroke="#6CC481" stroke-opacity="0.2"/>
<line x1="165.508" y1="119.501" x2="14.3268" y2="119.501" stroke="#6CC481" stroke-opacity="0.2"/>
<line x1="167.937" y1="143.501" x2="14.3268" y2="143.501" stroke="#6CC481" stroke-opacity="0.2"/>
<line x1="161.845" y1="167.501" x2="14.3269" y2="167.501" stroke="#6CC481" stroke-opacity="0.2"/>
<line x1="62.1542" y1="74.394" x2="62.1575" y2="210.924" stroke="#6CC481" stroke-opacity="0.2"/>
<line x1="84.3481" y1="74.394" x2="84.3514" y2="210.924" stroke="#6CC481" stroke-opacity="0.2"/>
<line x1="106.542" y1="74.394" x2="106.545" y2="210.924" stroke="#6CC481" stroke-opacity="0.2"/>
<line x1="128.735" y1="74.394" x2="128.739" y2="210.924" stroke="#6CC481" stroke-opacity="0.2"/>
<line x1="184.084" y1="171.736" x2="184.087" y2="308.266" stroke="#6CC481" stroke-opacity="0.2"/>
<line x1="285.896" y1="192.843" x2="158.45" y2="192.843" stroke="#6CC481" stroke-opacity="0.2"/>
<line x1="285.896" y1="218.807" x2="158.45" y2="218.807" stroke="#6CC481" stroke-opacity="0.2"/>
<line x1="285.896" y1="244.771" x2="158.45" y2="244.771" stroke="#6CC481" stroke-opacity="0.2"/>
<line x1="285.896" y1="270.735" x2="158.45" y2="270.735" stroke="#6CC481" stroke-opacity="0.2"/>
<line x1="285.896" y1="294.535" x2="158.45" y2="294.535" stroke="#6CC481" stroke-opacity="0.2"/>
<line x1="206.278" y1="171.736" x2="206.281" y2="308.266" stroke="#6CC481" stroke-opacity="0.2"/>
<line x1="228.471" y1="171.736" x2="228.475" y2="308.266" stroke="#6CC481" stroke-opacity="0.2"/>
<line x1="250.665" y1="171.736" x2="250.669" y2="308.266" stroke="#6CC481" stroke-opacity="0.2"/>
<line x1="272.858" y1="171.736" x2="272.862" y2="308.266" stroke="#6CC481" stroke-opacity="0.2"/>
<path d="M280.247 85.3934L280.264 86.391L284.251 85.8518L285.162 86.4449L285.322 90.3597L286.278 90.3427L285.984 84.5802L280.247 85.3934Z" fill="#6CC481" stroke="#6CC481" stroke-width="3"/>
<path d="M183.11 140.854L183.903 141.413L205.632 116.515L215.621 131.941L237.763 99.7855L258.135 118.127L284.964 86.6241L284.131 86.1213L258.111 116.774L237.736 98.277L215.587 130.051L205.596 114.528L183.11 140.854Z" fill="#6CC481" stroke="#6CC481" stroke-width="3"/>
<path d="M180.325 211.67C173.04 211.108 165.599 211.42 158.24 212.598C134.902 216.33 128.347 225.611 126.84 228.493C129.899 236.733 146.988 242.376 167.887 241.498C189.087 240.607 206.922 233.313 210.334 224.627C208.755 221.537 202.538 213.381 180.325 211.67Z" fill="#FAFFC5"/>
<path d="M169.777 201.641C140.558 202.868 116.341 213.597 114.716 225.818C114.846 225.291 114.975 224.774 115.141 224.236C114.668 232.943 121.447 239.087 131.805 242.841C141.228 246.084 153.894 247.772 167.863 247.184C178.095 246.819 188.327 245.085 198.143 242.051L198.542 241.928L198.65 241.923C211.984 237.396 221.764 230.161 222.914 220.411C221.314 208.741 198.326 200.441 169.777 201.641ZM210.482 224.814C207.07 233.5 189.233 240.804 168.034 241.695C147.135 242.573 129.998 236.922 126.986 228.69C126.619 227.732 126.452 226.719 126.491 225.689C126.528 224.866 126.7 224.041 127.001 223.236C127.163 222.775 127.366 222.321 127.607 221.878C129.278 218.806 132.732 215.948 137.518 213.518C141.468 211.658 145.648 210.185 149.962 209.134C162.969 205.788 176.548 205.217 189.32 207.48C191.526 207.866 193.695 208.348 195.819 208.925C205.353 211.786 211.344 216.525 211.107 222.153C211.052 223.049 210.841 223.944 210.482 224.814Z" fill="#1A5A37"/>
<path d="M222.842 219.575C221.693 229.275 211.875 236.57 198.577 241.087L198.47 241.091L198.082 241.223C177.711 247.996 149.467 248.479 131.733 241.985C121.389 238.192 114.61 232.029 115.069 223.38C114.903 223.918 114.773 224.444 114.644 224.961C104.93 265.331 216.785 263.324 222.582 227.182L222.885 219.959C222.914 219.842 222.92 219.707 222.842 219.575Z" fill="#2CA85E"/>
<path d="M195.809 208.887C193.685 208.307 191.516 207.822 189.31 207.432C176.536 205.179 162.961 205.75 149.952 209.086C145.642 210.146 141.463 211.618 137.508 213.47C132.77 215.899 129.304 218.757 127.598 221.83C127.36 222.274 127.158 222.728 126.991 223.188C126.307 225.011 126.302 226.911 126.977 228.642C128.484 225.76 135.04 216.479 158.378 212.747C165.736 211.569 173.177 211.257 180.463 211.819C202.675 213.53 208.893 221.686 210.472 224.776C210.823 223.896 211.021 222.991 211.063 222.087C211.334 216.487 205.332 211.739 195.809 208.887Z" fill="#1A8244"/>
<path d="M177.073 224.826L146.191 224.273L157.059 240.076L177.073 224.826Z" fill="#1A5A37"/>
<path d="M177.073 224.826L146.191 224.273L178.723 212.894L177.073 224.826Z" fill="#1A8244"/>
<path d="M180.103 225.13L190.192 228.769L159.875 240.362L180.103 225.13Z" fill="#1A5A37"/>
<path d="M180.103 225.129L190.192 228.769L181.56 213.171L180.103 225.129Z" fill="#1A8244"/>
<path d="M157.059 240.076L161.269 224.53L178.724 212.894L177.073 224.826L157.059 240.076Z" fill="#3EA668" fill-opacity="0.2"/>
<path d="M157.358 232.961C150.073 232.399 142.632 232.711 135.273 233.889C111.935 237.621 105.38 246.902 103.873 249.784C106.932 258.024 124.021 263.667 144.92 262.789C166.12 261.898 183.955 254.604 187.367 245.918C185.788 242.828 179.571 234.672 157.358 232.961Z" fill="#FAFFC5"/>
<path d="M146.81 222.932C117.591 224.16 93.3738 234.888 91.749 247.109C91.8787 246.582 92.008 246.065 92.174 245.527C91.7005 254.234 98.4803 260.378 108.838 264.132C118.261 267.375 130.927 269.063 144.896 268.476C155.128 268.111 165.36 266.376 175.176 263.342L175.575 263.219L175.683 263.215C189.017 258.687 198.797 251.452 199.947 241.702C198.347 230.032 175.359 221.732 146.81 222.932ZM187.515 246.105C184.103 254.791 166.266 262.095 145.067 262.986C124.168 263.864 107.031 258.214 104.019 249.981C103.652 249.023 103.485 248.01 103.524 246.981C103.561 246.157 103.733 245.332 104.034 244.527C104.196 244.066 104.399 243.612 104.64 243.169C106.311 240.097 109.765 237.24 114.551 234.809C118.501 232.949 122.681 231.476 126.995 230.425C140.002 227.079 153.581 226.508 166.353 228.771C168.559 229.157 170.728 229.64 172.852 230.216C182.386 233.078 188.377 237.816 188.14 243.444C188.085 244.34 187.874 245.236 187.515 246.105Z" fill="#1A5A37"/>
<path d="M199.875 240.866C198.726 250.567 188.908 257.861 175.61 262.378L175.503 262.382L175.115 262.515C154.744 269.288 126.5 269.77 108.766 263.276C98.422 259.483 91.6431 253.32 92.1021 244.671C91.9361 245.209 91.8065 245.736 91.6772 246.253C81.9629 286.622 193.818 284.615 199.615 248.473L199.918 241.25C199.947 241.133 199.953 240.998 199.875 240.866Z" fill="#2CA85E"/>
<path d="M172.842 230.178C170.719 229.598 168.549 229.113 166.343 228.723C153.569 226.47 139.994 227.041 126.985 230.377C122.675 231.437 118.496 232.909 114.541 234.761C109.803 237.19 106.337 240.048 104.631 243.121C104.393 243.565 104.191 244.019 104.024 244.479C103.34 246.302 103.335 248.202 104.01 249.933C105.517 247.051 112.073 237.77 135.411 234.038C142.769 232.86 150.21 232.548 157.496 233.11C179.709 234.822 185.926 242.977 187.505 246.067C187.856 245.187 188.055 244.282 188.096 243.378C188.367 237.778 182.365 233.03 172.842 230.178Z" fill="#1A8244"/>
<path d="M154.106 246.117L123.224 245.564L134.092 261.367L154.106 246.117Z" fill="#1A5A37"/>
<path d="M154.106 246.117L123.224 245.564L155.756 234.185L154.106 246.117Z" fill="#1A8244"/>
<path d="M157.136 246.421L167.225 250.06L136.908 261.653L157.136 246.421Z" fill="#1A5A37"/>
<path d="M157.136 246.421L167.225 250.06L158.593 234.462L157.136 246.421Z" fill="#1A8244"/>
<path d="M134.092 261.367L138.302 245.821L155.757 234.185L154.106 246.117L134.092 261.367Z" fill="#3EA668" fill-opacity="0.2"/>
<path d="M161.953 222.703C154.667 222.141 147.227 222.453 139.868 223.631C116.53 227.363 109.974 236.644 108.467 239.526C111.526 247.766 128.615 253.409 149.515 252.531C170.714 251.64 188.55 244.346 191.962 235.66C190.383 232.57 184.166 224.414 161.953 222.703Z" fill="#FAFFC5"/>
<path d="M151.405 212.674C122.186 213.902 97.9685 224.63 96.3436 236.851C96.4733 236.324 96.6026 235.807 96.7686 235.269C96.2952 243.976 103.075 250.12 113.432 253.874C122.855 257.117 135.522 258.805 149.491 258.218C159.723 257.853 169.955 256.118 179.77 253.084L180.17 252.961L180.278 252.957C193.612 248.429 203.391 241.194 204.542 231.444C202.941 219.774 179.954 211.474 151.405 212.674ZM192.109 235.847C188.697 244.533 170.861 251.837 149.662 252.728C128.762 253.606 111.626 247.955 108.614 239.723C108.247 238.765 108.08 237.752 108.119 236.723C108.156 235.899 108.327 235.074 108.628 234.269C108.791 233.808 108.994 233.354 109.235 232.911C110.905 229.839 114.359 226.981 119.145 224.551C123.096 222.691 127.276 221.218 131.589 220.167C144.597 216.821 158.175 216.25 170.947 218.513C173.153 218.899 175.323 219.382 177.446 219.958C186.981 222.819 192.971 227.558 192.735 233.186C192.68 234.082 192.469 234.978 192.109 235.847Z" fill="#1A5A37"/>
<path d="M204.469 230.608C203.321 240.309 193.503 247.603 180.205 252.12L180.097 252.124L179.709 252.256C159.338 259.03 131.095 259.512 113.36 253.018C103.017 249.225 96.2377 243.062 96.6968 234.413C96.5308 234.951 96.4011 235.478 96.2718 235.995C86.5575 276.364 198.413 274.357 204.209 238.215L204.513 230.992C204.542 230.875 204.547 230.74 204.469 230.608Z" fill="#2CA85E"/>
<path d="M177.436 219.92C175.313 219.34 173.144 218.855 170.938 218.465C158.164 216.212 144.588 216.783 131.58 220.119C127.269 221.179 123.09 222.651 119.136 224.503C114.398 226.932 110.932 229.79 109.225 232.863C108.988 233.307 108.785 233.761 108.619 234.221C107.935 236.044 107.93 237.944 108.605 239.675C110.112 236.793 116.667 227.512 140.005 223.78C147.364 222.602 154.805 222.29 162.09 222.852C184.303 224.563 190.52 232.719 192.099 235.809C192.45 234.929 192.649 234.024 192.69 233.12C192.961 227.52 186.959 222.772 177.436 219.92Z" fill="#1A8244"/>
<path d="M158.701 235.859L127.819 235.306L138.686 251.109L158.701 235.859Z" fill="#1A5A37"/>
<path d="M158.701 235.859L127.819 235.306L160.351 223.927L158.701 235.859Z" fill="#1A8244"/>
<path d="M161.73 236.163L171.82 239.802L141.503 251.395L161.73 236.163Z" fill="#1A5A37"/>
<path d="M161.731 236.163L171.82 239.802L163.187 224.204L161.731 236.163Z" fill="#1A8244"/>
<path d="M138.687 251.109L142.897 235.563L160.351 223.927L158.701 235.859L138.687 251.109Z" fill="#3EA668" fill-opacity="0.2"/>
<path d="M157.625 211.294C150.339 210.731 142.899 211.044 135.54 212.222C112.202 215.954 105.647 225.235 104.139 228.117C107.198 236.357 124.287 242 145.187 241.122C166.386 240.231 184.222 232.937 187.634 224.251C186.055 221.161 179.838 213.005 157.625 211.294Z" fill="#FAFFC5"/>
<path d="M147.077 201.264C117.858 202.492 93.6406 213.22 92.0158 225.441C92.1455 224.914 92.2748 224.397 92.4408 223.86C91.9673 232.567 98.7471 238.71 109.104 242.464C118.527 245.707 131.194 247.395 145.163 246.808C155.395 246.443 165.627 244.708 175.443 241.675L175.842 241.552L175.95 241.547C189.284 237.02 199.064 229.784 200.214 220.035C198.614 208.365 175.626 200.064 147.077 201.264ZM187.781 224.438C184.369 233.124 166.533 240.427 145.334 241.318C124.434 242.197 107.298 236.546 104.286 228.314C103.919 227.356 103.752 226.342 103.791 225.313C103.828 224.49 103.999 223.665 104.3 222.859C104.463 222.398 104.666 221.945 104.907 221.502C106.578 218.43 110.031 215.572 114.818 213.141C118.768 211.281 122.948 209.809 127.262 208.757C140.269 205.411 153.848 204.841 166.619 207.103C168.826 207.49 170.995 207.972 173.119 208.548C182.653 211.41 188.644 216.149 188.407 221.776C188.352 222.672 188.141 223.568 187.781 224.438Z" fill="#1A5A37"/>
<path d="M200.141 219.198C198.993 228.899 189.175 236.194 175.877 240.71L175.769 240.715L175.381 240.847C155.011 247.62 126.767 248.102 109.033 241.608C98.6888 237.815 91.9099 231.652 92.3689 223.004C92.2029 223.541 92.0733 224.068 91.944 224.585C82.2297 264.955 194.085 262.947 199.881 226.806L200.185 219.583C200.214 219.466 200.22 219.33 200.141 219.198Z" fill="#2CA85E"/>
<path d="M173.109 208.51C170.985 207.931 168.816 207.445 166.61 207.055C153.836 204.803 140.261 205.373 127.252 208.71C122.941 209.77 118.763 211.242 114.808 213.093C110.07 215.522 106.604 218.38 104.897 221.454C104.66 221.898 104.457 222.351 104.291 222.812C103.607 224.634 103.602 226.535 104.277 228.266C105.784 225.384 112.34 216.103 135.677 212.371C143.036 211.193 150.477 210.88 157.762 211.443C179.975 213.154 186.193 221.31 187.771 224.4C188.122 223.52 188.321 222.614 188.362 221.711C188.634 216.111 182.632 211.363 173.109 208.51Z" fill="#1A8244"/>
<path d="M154.373 224.45L123.491 223.897L134.359 239.7L154.373 224.45Z" fill="#1A5A37"/>
<path d="M154.373 224.45L123.491 223.897L156.023 212.518L154.373 224.45Z" fill="#1A8244"/>
<path d="M157.403 224.753L167.492 228.393L137.175 239.986L157.403 224.753Z" fill="#1A5A37"/>
<path d="M157.403 224.753L167.492 228.392L158.859 212.794L157.403 224.753Z" fill="#1A8244"/>
<path d="M134.359 239.7L138.569 224.154L156.023 212.517L154.373 224.45L134.359 239.7Z" fill="#3EA668" fill-opacity="0.2"/>
<path d="M165.033 199.116C157.747 198.553 150.307 198.866 142.948 200.044C119.61 203.776 113.055 213.057 111.547 215.939C114.607 224.179 131.695 229.822 152.595 228.944C173.794 228.053 191.63 220.759 195.042 212.073C193.463 208.983 187.246 200.827 165.033 199.116Z" fill="#FAFFC5"/>
<path d="M154.485 189.086C125.266 190.314 101.049 201.043 99.4238 213.263C99.5535 212.737 99.6828 212.22 99.8488 211.682C99.3753 220.389 106.155 226.533 116.512 230.287C125.935 233.53 138.602 235.217 152.571 234.63C162.803 234.265 173.035 232.531 182.851 229.497L183.25 229.374L183.358 229.369C196.692 224.842 206.472 217.606 207.622 207.857C206.022 196.187 183.034 187.887 154.485 189.086ZM195.189 212.26C191.777 220.946 173.941 228.25 152.742 229.14C131.842 230.019 114.706 224.368 111.694 216.136C111.327 215.178 111.16 214.164 111.199 213.135C111.236 212.312 111.407 211.487 111.708 210.681C111.871 210.221 112.074 209.767 112.315 209.324C113.986 206.252 117.439 203.394 122.226 200.963C126.176 199.104 130.356 197.631 134.67 196.579C147.677 193.234 161.256 192.663 174.027 194.925C176.234 195.312 178.403 195.794 180.527 196.37C190.061 199.232 196.052 203.971 195.815 209.599C195.76 210.494 195.549 211.39 195.189 212.26Z" fill="#1A5A37"/>
<path d="M207.549 207.021C206.401 216.721 196.583 224.016 183.285 228.533L183.177 228.537L182.789 228.669C162.419 235.442 134.175 235.925 116.441 229.431C106.097 225.637 99.3179 219.474 99.7769 210.826C99.6109 211.364 99.4813 211.89 99.352 212.407C89.6377 252.777 201.493 250.769 207.289 214.628L207.593 207.405C207.622 207.288 207.628 207.152 207.549 207.021Z" fill="#2CA85E"/>
<path d="M180.517 196.332C178.393 195.753 176.224 195.268 174.018 194.878C161.244 192.625 147.669 193.195 134.66 196.532C130.349 197.592 126.171 199.064 122.216 200.916C117.478 203.345 114.012 206.203 112.305 209.276C112.068 209.72 111.865 210.174 111.699 210.634C111.015 212.457 111.01 214.357 111.685 216.088C113.192 213.206 119.748 203.925 143.085 200.193C150.444 199.015 157.885 198.702 165.17 199.265C187.383 200.976 193.601 209.132 195.179 212.222C195.53 211.342 195.729 210.437 195.77 209.533C196.042 203.933 190.04 199.185 180.517 196.332Z" fill="#1A8244"/>
<path d="M161.781 212.272L130.899 211.719L141.767 227.522L161.781 212.272Z" fill="#1A5A37"/>
<path d="M161.781 212.272L130.899 211.719L163.431 200.34L161.781 212.272Z" fill="#1A8244"/>
<path d="M164.811 212.576L174.9 216.215L144.583 227.808L164.811 212.576Z" fill="#1A5A37"/>
<path d="M164.811 212.575L174.9 216.215L166.267 200.617L164.811 212.575Z" fill="#1A8244"/>
<path d="M141.767 227.522L145.977 211.976L163.431 200.34L161.781 212.272L141.767 227.522Z" fill="#3EA668" fill-opacity="0.2"/>
<path d="M171.198 184.37C164.27 182.417 157.025 181.307 149.694 181.076C126.444 180.339 118.34 188.347 116.333 190.934C117.713 199.74 133.137 208.636 153.487 211.754C174.128 214.916 192.746 211.047 197.7 203.033C196.766 199.648 192.321 190.323 171.198 184.37Z" fill="#FAFFC5"/>
<path d="M162.929 172.348C134.478 167.989 109.042 174.065 105.137 185.948C105.363 185.447 105.587 184.956 105.85 184.451C103.729 193.048 109.102 200.473 118.386 206.198C126.866 211.234 138.775 215.339 152.377 217.423C162.327 219.014 172.539 219.239 182.598 218.087L183.007 218.041L183.112 218.057C196.853 216.088 207.68 210.738 210.654 201.231C211.339 189.281 190.727 176.607 162.929 172.348ZM197.807 203.248C192.852 211.262 174.233 215.141 153.591 211.978C133.241 208.86 117.773 199.948 116.438 191.158C116.266 190.132 116.298 189.09 116.533 188.07C116.726 187.256 117.049 186.465 117.494 185.719C117.739 185.29 118.022 184.877 118.339 184.481C120.539 181.735 124.421 179.544 129.507 178.033C133.677 176.932 137.995 176.262 142.361 176.037C155.562 175.185 168.783 177.21 180.684 181.908C182.741 182.716 184.743 183.611 186.684 184.592C195.344 189.269 200.223 195.142 198.92 200.712C198.695 201.595 198.32 202.449 197.807 203.248Z" fill="#1A5A37"/>
<path d="M210.744 200.382C207.781 209.842 196.906 215.244 183.201 217.209L183.097 217.192L182.697 217.25C161.731 220.115 134.365 215.199 118.48 205.33C109.217 199.569 103.848 192.124 105.944 183.583C105.681 184.088 105.455 184.589 105.232 185.08C88.136 223.502 196.535 242.875 209.039 207.923L210.712 200.774C210.763 200.663 210.794 200.529 210.744 200.382Z" fill="#2CA85E"/>
<path d="M186.682 184.552C184.742 183.568 182.74 182.669 180.684 181.859C168.779 177.17 155.561 175.145 142.361 175.988C137.996 176.222 133.679 176.892 129.507 177.984C124.467 179.502 120.574 181.691 118.339 184.431C118.025 184.829 117.742 185.242 117.494 185.67C116.485 187.358 116.117 189.253 116.438 191.109C118.444 188.522 126.548 180.514 149.798 181.251C157.129 181.482 164.374 182.592 171.302 184.545C192.425 190.498 196.87 199.823 197.804 203.208C198.312 202.397 198.677 201.532 198.889 200.638C200.221 195.102 195.332 189.218 186.682 184.552Z" fill="#1A8244"/>
<path d="M165.543 196.875L135.827 190.421L143.302 208.266L165.543 196.875Z" fill="#1A5A37"/>
<path d="M165.543 196.875L135.827 190.421L169.417 185.285L165.543 196.875Z" fill="#1A8244"/>
<path d="M168.411 197.757L177.458 203.316L145.967 209.089L168.411 197.757Z" fill="#1A5A37"/>
<path d="M168.411 197.757L177.458 203.316L172.103 186.104L168.411 197.757Z" fill="#1A8244"/>
<path d="M143.302 208.266L150.338 193.559L169.417 185.285L165.543 196.875L143.302 208.266Z" fill="#3EA668" fill-opacity="0.2"/>
<path d="M175.878 167.952C169.331 165.107 162.365 163.067 155.202 161.897C132.486 158.182 123.51 165.173 121.211 167.51C121.437 176.515 135.43 187.408 154.997 193.139C174.843 198.951 193.604 197.456 199.491 190.055C199.007 186.542 195.84 176.624 175.878 167.952Z" fill="#FAFFC5"/>
<path d="M169.304 154.84C141.949 146.829 116.216 149.664 110.865 161.078C111.15 160.605 111.433 160.141 111.755 159.668C108.574 168.016 112.895 176.148 121.271 183.076C128.946 189.211 140.104 194.85 153.182 198.681C162.741 201.549 172.731 203.082 182.746 203.215L183.154 203.221L183.255 203.251C196.989 203.035 208.295 199.057 212.43 189.906C214.631 178.014 196.031 162.668 169.304 154.84ZM199.568 190.284C193.681 197.685 174.917 199.19 155.07 193.377C135.504 187.647 121.469 176.731 121.284 167.748C121.248 166.698 121.413 165.656 121.773 164.664C122.067 163.873 122.485 163.121 123.016 162.43C123.312 162.032 123.642 161.653 124.004 161.297C126.515 158.825 130.603 157.126 135.787 156.262C140.018 155.692 144.341 155.573 148.653 155.906C161.713 156.741 174.425 160.464 185.5 166.698C187.414 167.77 189.265 168.925 191.043 170.156C198.941 175.954 202.976 182.467 200.984 187.884C200.65 188.741 200.174 189.549 199.568 190.284Z" fill="#1A5A37"/>
<path d="M212.627 189.067C208.509 198.171 197.148 202.195 183.451 202.411L183.351 202.382L182.951 202.388C162.015 202.577 135.795 194.145 121.474 182.218C113.123 175.256 108.809 167.105 111.959 158.81C111.636 159.283 111.351 159.756 111.068 160.22C89.3779 196.552 193.247 229.85 209.989 196.409L212.546 189.456C212.609 189.351 212.657 189.22 212.627 189.067Z" fill="#2CA85E"/>
<path d="M191.046 170.116C189.269 168.882 187.42 167.724 185.506 166.648C174.427 160.424 161.718 156.701 148.66 155.857C144.347 155.533 140.026 155.652 135.793 156.212C130.654 157.089 126.554 158.786 124.011 161.247C123.651 161.605 123.321 161.984 123.023 162.381C121.817 163.944 121.213 165.797 121.29 167.699C123.59 165.362 132.566 158.371 155.282 162.085C162.445 163.255 169.411 165.296 175.958 168.141C195.92 176.812 199.087 186.731 199.57 190.244C200.172 189.495 200.641 188.675 200.963 187.806C202.979 182.427 198.936 175.902 191.046 170.116Z" fill="#1A8244"/>
<path d="M168.73 179.765L140.401 169.491L145.451 188.338L168.73 179.765Z" fill="#1A5A37"/>
<path d="M168.73 179.765L140.401 169.491L174.014 168.641L168.73 179.765Z" fill="#1A8244"/>
<path d="M171.43 181.016L179.595 187.748L147.96 189.505L171.43 181.016Z" fill="#1A5A37"/>
<path d="M171.43 181.016L179.595 187.748L176.544 169.806L171.43 181.016Z" fill="#1A8244"/>
<path d="M145.451 188.338L154.237 174.495L174.014 168.641L168.73 179.765L145.451 188.338Z" fill="#3EA668" fill-opacity="0.2"/>
<path d="M187.199 138.386C182.903 132.766 177.884 127.705 172.302 123.362C154.6 109.589 143.763 112.011 140.739 113.139C136.84 121.615 143.836 138.1 157.933 152.318C172.232 166.738 188.925 173.87 197.312 169.664C198.495 166.178 200.298 155.517 187.199 138.386Z" fill="#FAFFC5"/>
<path d="M187.544 123.208C167.836 103.332 144.583 94.2777 134.83 102.458C135.289 102.148 135.74 101.845 136.231 101.553C129.723 107.869 129.716 117.393 133.718 127.639C137.482 136.83 144.444 147.143 153.867 156.646C160.722 163.656 168.553 169.619 177.041 174.293L177.386 174.484L177.459 174.557C189.279 180.596 200.737 182.034 208.424 175.404C215.705 165.347 206.801 142.629 187.544 123.208ZM197.273 169.912C188.886 174.118 172.187 166.993 157.888 152.573C143.79 138.355 136.77 121.83 140.693 113.394C141.139 112.401 141.753 111.507 142.511 110.749C143.122 110.146 143.82 109.638 144.588 109.237C145.021 109 145.475 108.798 145.946 108.631C149.211 107.474 153.473 107.751 158.29 109.303C162.161 110.696 165.904 112.548 169.434 114.818C180.202 121.527 189.361 130.764 195.981 141.591C197.128 143.458 198.183 145.372 199.141 147.325C203.248 156.304 203.734 164.192 199.572 168.324C198.899 168.969 198.125 169.504 197.273 169.912Z" fill="#1A5A37"/>
<path d="M208.973 174.713C201.322 181.308 189.797 179.888 178.008 173.866L177.935 173.793L177.591 173.617C159.636 164.281 141.087 144.53 134.282 126.934C130.316 116.667 130.337 107.129 136.794 100.847C136.304 101.14 135.845 101.45 135.394 101.753C100.374 125.68 173.904 203.828 203.386 180.341L208.727 175.038C208.829 174.969 208.929 174.87 208.973 174.713Z" fill="#2CA85E"/>
<path d="M199.162 147.289C198.206 145.334 197.153 143.417 196.009 141.548C189.38 130.727 180.223 121.492 169.462 114.774C165.928 112.514 162.186 110.662 158.318 109.26C153.533 107.74 149.263 107.455 145.974 108.588C145.504 108.758 145.051 108.96 144.616 109.193C142.876 110.099 141.519 111.548 140.721 113.351C143.745 112.223 154.583 109.801 172.284 123.574C177.867 127.916 182.885 132.978 187.181 138.598C200.28 155.729 198.477 166.39 197.294 169.876C198.147 169.453 198.92 168.903 199.59 168.242C203.755 164.156 203.268 156.253 199.162 147.289Z" fill="#1A8244"/>
<path d="M175.73 146.122L156.218 123.7L151.966 143.517L175.73 146.122Z" fill="#1A5A37"/>
<path d="M175.73 146.122L156.218 123.7L185.294 138.18L175.73 146.122Z" fill="#1A8244"/>
<path d="M177.467 148.512L181.378 158.48L153.578 145.742L177.467 148.512Z" fill="#1A5A37"/>
<path d="M177.467 148.512L181.378 158.48L186.925 140.412L177.467 148.512Z" fill="#1A8244"/>
<path d="M151.966 143.517L165.754 134.637L185.294 138.18L175.731 146.122L151.966 143.517Z" fill="#3EA668" fill-opacity="0.2"/>
<path d="M201.158 99.1653C195.182 95.3504 188.679 92.2802 181.855 90.0523C160.214 82.9831 150.416 88.6611 147.825 90.6628C146.718 99.7152 158.781 112.688 177.048 121.312C195.577 130.059 214.122 131.327 220.963 124.783C221.009 121.193 219.378 110.793 201.158 99.1653Z" fill="#FAFFC5"/>
<path d="M196.669 85.0643C171.131 73.0075 145.578 72.0536 138.667 82.6954C139.016 82.2637 139.36 81.8408 139.745 81.4151C135.407 89.3064 138.429 98.088 145.589 106.261C152.181 113.537 162.249 120.83 174.458 126.594C183.372 130.877 192.904 133.884 202.668 135.494L203.065 135.561L203.159 135.605C216.606 137.414 228.236 135.097 233.624 126.542C237.528 114.956 221.622 96.8445 196.669 85.0643ZM221.005 125.024C214.163 131.568 195.613 130.309 177.085 121.561C158.817 112.937 146.718 99.9361 147.862 90.9123C147.981 89.8547 148.295 88.836 148.794 87.8956C149.197 87.1461 149.716 86.4554 150.338 85.8416C150.685 85.4861 151.064 85.1554 151.47 84.852C154.286 82.7469 158.53 81.6473 163.721 81.5467C167.938 81.6 172.178 82.1176 176.341 83.0874C188.975 85.8491 200.843 91.452 210.741 99.3277C212.453 100.684 214.09 102.113 215.645 103.609C222.505 110.58 225.486 117.697 222.742 122.829C222.29 123.638 221.705 124.377 221.005 125.024Z" fill="#1A5A37"/>
<path d="M233.94 125.73C228.576 134.241 216.885 136.597 203.475 134.793L203.381 134.749L202.989 134.697C182.511 131.799 158.144 119.488 145.914 105.432C138.783 97.2283 135.771 88.4291 140.071 80.5858C139.686 81.0115 139.337 81.4432 138.993 81.8661C112.45 115.056 208.998 163.718 230.281 132.694L233.804 126.108C233.881 126.012 233.947 125.888 233.94 125.73Z" fill="#2CA85E"/>
<path d="M215.654 103.569C214.1 102.071 212.465 100.639 210.754 99.279C200.85 91.4114 188.985 85.8098 176.355 83.0387C172.19 82.0782 167.952 81.5608 163.734 81.4979C158.585 81.6183 154.331 82.713 151.483 84.8032C151.08 85.1091 150.701 85.4397 150.351 85.7929C148.943 87.1806 148.08 88.9475 147.875 90.8636C150.466 88.8619 160.264 83.1839 181.905 90.2531C188.729 92.481 195.232 95.5512 201.208 99.3661C219.428 110.994 221.059 121.394 221.013 124.984C221.711 124.323 222.29 123.57 222.733 122.748C225.495 117.657 222.508 110.526 215.654 103.569Z" fill="#1A8244"/>
<path d="M192.434 109.942L166.278 95.4764L168.431 115.097L192.434 109.942Z" fill="#1A5A37"/>
<path d="M192.434 109.942L166.278 95.4764L199.235 99.5808L192.434 109.942Z" fill="#1A8244"/>
<path d="M194.887 111.594L201.869 119.539L170.71 116.635L194.887 111.594Z" fill="#1A5A37"/>
<path d="M194.887 111.594L201.87 119.539L201.535 101.12L194.887 111.594Z" fill="#1A8244"/>
<path d="M168.431 115.097L179.054 102.527L199.235 99.5809L192.434 109.942L168.431 115.097Z" fill="#3EA668" fill-opacity="0.2"/>
<path fill-rule="evenodd" clip-rule="evenodd" d="M89.12 90.1781L92.8074 80.7172L99.5002 88.7079L95.7999 98.2022L95.6724 98.0491L89.12 90.1781Z" fill="#6CC481" stroke="#6CC481"/>
<path fill-rule="evenodd" clip-rule="evenodd" d="M81.4172 81.5537L77.7407 90.9869L88.0284 89.6307L91.7178 80.1643L91.5998 80.1803L91.5213 80.1909L81.4172 81.5537Z" fill="#485945" stroke="#485945"/>
<path fill-rule="evenodd" clip-rule="evenodd" d="M77.8962 92.198L88.2096 90.7624L94.8566 98.8569L84.5438 100.168L77.8962 92.198Z" fill="#EBFF27" stroke="#EBFF27"/>
<path fill-rule="evenodd" clip-rule="evenodd" d="M256.299 270.219L259.652 261.615L265.739 268.882L262.374 277.516L262.258 277.377L256.299 270.219Z" fill="#6CC481" stroke="#6CC481"/>
<path fill-rule="evenodd" clip-rule="evenodd" d="M250.139 262.62L246.796 271.199L256.152 269.966L259.507 261.357L259.4 261.371L259.328 261.381L250.139 262.62Z" fill="#485945" stroke="#485945"/>
<path fill-rule="evenodd" clip-rule="evenodd" d="M246.9 271.602L256.279 270.297L262.324 277.658L252.945 278.851L246.9 271.602Z" fill="#EBFF27" stroke="#EBFF27"/>
</svg>
