<svg width="282" height="69" viewBox="0 0 282 69" fill="none" xmlns="http://www.w3.org/2000/svg">
<g clip-path="url(#clip0_1_4)">
<path d="M100.111 0.26059V53.7328H94.8711L94.1443 47.4832C91.5984 51.8435 86.4285 54.4581 80.6755 54.4581C70.9928 54.4581 63.1333 47.7004 63.1333 35.4962C63.1333 23.292 71.1406 16.2432 80.6755 16.2432C86.5722 16.2432 91.5942 18.7882 94.1443 23.001V0.26059H100.115H100.111ZM93.9964 35.4962C93.9964 26.9229 88.535 21.4765 81.62 21.5462C74.3395 21.62 69.3174 26.9967 69.3174 35.4962C69.3174 43.9957 74.4134 49.2249 81.62 49.2249C88.8266 49.2249 93.9964 44.1391 93.9964 35.4962Z" fill="#EBFF24"/>
<path d="M139.712 37.0207H110.159C110.303 45.1554 115.62 49.3724 122.244 49.3724C127.196 49.3724 131.343 46.975 133.163 42.1802H139.277C137.166 49.5158 130.834 54.3844 122.096 54.3844C111.251 54.3844 104.045 46.7578 104.045 35.279C104.045 23.8001 111.251 16.2432 122.026 16.2432C132.801 16.2432 139.716 23.5092 139.716 34.4061V37.0207H139.712ZM110.229 32.5906H133.598C133.163 24.964 128.21 21.1118 122.022 21.1118C115.834 21.1118 110.956 24.8902 110.229 32.5906Z" fill="#EBFF24"/>
<path d="M175.819 31.7177V53.7287H169.849V32.9512C169.849 25.3246 165.845 21.6896 159.874 21.6896C152.959 21.6896 149.247 26.6278 149.247 33.8241V53.7287H143.276V16.9686H148.516L149.173 22.6363C151.284 18.5669 155.579 16.2432 161.258 16.2432C170.432 16.2432 175.819 22.3453 175.819 31.7177V31.7177Z" fill="#EBFF24"/>
<path d="M184.192 42.9055C184.336 47.2659 188.122 49.8068 193.801 49.8068C199.48 49.8068 202.974 47.5528 202.974 43.7047C202.974 40.4344 201.229 38.6927 196.934 38.1108L189.292 36.8772C182.303 35.7134 179.1 32.3734 179.1 26.8532C179.1 20.3864 185.288 16.2473 193.37 16.2473C202.034 16.2473 208.292 20.3864 208.366 27.7261H202.469C202.325 23.2961 198.609 20.8987 193.443 20.8987C188.278 20.8987 185.001 23.0789 185.001 26.7098C185.001 29.8326 187.038 31.3612 191.624 32.0128L199.123 33.2463C205.82 34.3364 209.023 37.5329 209.023 43.2006C209.023 50.4666 202.399 54.4622 193.953 54.4622C184.27 54.4622 178.299 49.9584 178.156 42.9096H184.196L184.192 42.9055Z" fill="#EBFF24"/>
<path d="M212.944 2.07605H220.369V9.05104H212.944V2.07605ZM213.671 16.9686H219.642V53.7287H213.671V16.9686Z" fill="#EBFF24"/>
<path d="M228.302 44.5038V22.3453H221.679V16.9686H225.173C227.501 16.9686 228.302 15.9523 228.302 13.6983V7.37903H234.273V16.9686H242.937V22.3453H234.273V43.7047C234.273 46.3931 235.147 48.3561 238.712 48.3561H242.859V53.7328H237.328C231.866 53.7328 228.302 50.7535 228.302 44.5079V44.5038Z" fill="#EBFF24"/>
<path d="M264.117 49.7371L275.254 16.8989L281.586 16.9727L266.154 59.6914C263.534 66.8099 259.531 68.2647 254.143 68.2647H246.863V62.888H254.217C258.003 62.888 260.331 60.8553 260.331 56.7121C260.331 55.6958 260.114 54.6794 259.674 53.5156L245.553 16.9727H252.032L264.117 49.7371V49.7371Z" fill="#EBFF24"/>
<path d="M5.85415 10.9239H1.28792C0.902383 10.9239 0.589844 11.2358 0.589844 11.6205V16.1776C0.589844 16.5624 0.902383 16.8743 1.28792 16.8743H5.85415C6.23969 16.8743 6.55223 16.5624 6.55223 16.1776V11.6205C6.55223 11.2358 6.23969 10.9239 5.85415 10.9239Z" fill="#EBFF24"/>
<path d="M14.0956 16.8743H9.65251C9.26652 16.8743 8.95444 16.5629 8.95444 16.1776V11.6164C8.95444 11.2312 9.26652 10.9198 9.65251 10.9198H14.0956C14.5473 10.9198 14.9168 11.2886 14.9168 11.7394V16.0506C14.9168 16.5014 14.5473 16.8702 14.0956 16.8702V16.8743Z" fill="#EBFF24"/>
<path d="M22.5792 10.9239H18.013C17.6275 10.9239 17.3149 11.2358 17.3149 11.6205V16.1776C17.3149 16.5624 17.6275 16.8743 18.013 16.8743H22.5792C22.9648 16.8743 23.2773 16.5624 23.2773 16.1776V11.6205C23.2773 11.2358 22.9648 10.9239 22.5792 10.9239Z" fill="#EBFF24"/>
<path d="M30.9479 10.9239H26.3817C25.9961 10.9239 25.6836 11.2358 25.6836 11.6205V16.1776C25.6836 16.5624 25.9961 16.8743 26.3817 16.8743H30.9479C31.3334 16.8743 31.646 16.5624 31.646 16.1776V11.6205C31.646 11.2358 31.3334 10.9239 30.9479 10.9239Z" fill="#EBFF24"/>
<path d="M39.333 19.2184H34.7668C34.3813 19.2184 34.0687 19.5304 34.0687 19.9151V24.4722C34.0687 24.857 34.3813 25.1689 34.7668 25.1689H39.333C39.7186 25.1689 40.0311 24.857 40.0311 24.4722V19.9151C40.0311 19.5304 39.7186 19.2184 39.333 19.2184Z" fill="#EBFF24"/>
<path d="M30.9479 19.2184H26.3817C25.9961 19.2184 25.6836 19.5304 25.6836 19.9151V24.4722C25.6836 24.857 25.9961 25.1689 26.3817 25.1689H30.9479C31.3334 25.1689 31.646 24.857 31.646 24.4722V19.9151C31.646 19.5304 31.3334 19.2184 30.9479 19.2184Z" fill="#EBFF24"/>
<path d="M22.5792 19.2184H18.013C17.6275 19.2184 17.3149 19.5304 17.3149 19.9151V24.4722C17.3149 24.857 17.6275 25.1689 18.013 25.1689H22.5792C22.9648 25.1689 23.2773 24.857 23.2773 24.4722V19.9151C23.2773 19.5304 22.9648 19.2184 22.5792 19.2184Z" fill="#EBFF24"/>
<path d="M9.7757 19.2184H14.2187C14.6047 19.2184 14.9168 19.5299 14.9168 19.9151V24.4763C14.9168 24.8615 14.6047 25.173 14.2187 25.173H9.7757C9.32401 25.173 8.95444 24.8042 8.95444 24.3534V20.0422C8.95444 19.5914 9.32401 19.2225 9.7757 19.2225V19.2184Z" fill="#EBFF24"/>
<path d="M5.85415 19.2184H1.28792C0.902383 19.2184 0.589844 19.5304 0.589844 19.9151V24.4722C0.589844 24.857 0.902383 25.1689 1.28792 25.1689H5.85415C6.23969 25.1689 6.55223 24.857 6.55223 24.4722V19.9151C6.55223 19.5304 6.23969 19.2184 5.85415 19.2184Z" fill="#EBFF24"/>
<path d="M5.73097 27.5089H1.41111C0.957537 27.5089 0.589844 27.8759 0.589844 28.3286V32.6398C0.589844 33.0924 0.957537 33.4594 1.41111 33.4594H5.73097C6.18454 33.4594 6.55223 33.0924 6.55223 32.6398V28.3286C6.55223 27.8759 6.18454 27.5089 5.73097 27.5089Z" fill="#EBFF24"/>
<path d="M14.2228 33.4594H9.77979C9.3281 33.4594 8.95853 33.0906 8.95853 32.6398V28.3286C8.95853 27.8778 9.3281 27.5089 9.77979 27.5089H14.2228C14.6088 27.5089 14.9209 27.8204 14.9209 28.2056V32.7668C14.9209 33.152 14.6088 33.4635 14.2228 33.4635V33.4594Z" fill="#EBFF24"/>
<path d="M22.5792 27.5089H18.013C17.6275 27.5089 17.3149 27.8209 17.3149 28.2056V32.7627C17.3149 33.1475 17.6275 33.4594 18.013 33.4594H22.5792C22.9648 33.4594 23.2773 33.1475 23.2773 32.7627V28.2056C23.2773 27.8209 22.9648 27.5089 22.5792 27.5089Z" fill="#EBFF24"/>
<path d="M30.9479 27.5089H26.3817C25.9961 27.5089 25.6836 27.8209 25.6836 28.2056V32.7627C25.6836 33.1475 25.9961 33.4594 26.3817 33.4594H30.9479C31.3334 33.4594 31.646 33.1475 31.646 32.7627V28.2056C31.646 27.8209 31.3334 27.5089 30.9479 27.5089Z" fill="#EBFF24"/>
<path d="M39.333 27.5089H34.7668C34.3813 27.5089 34.0687 27.8209 34.0687 28.2056V32.7627C34.0687 33.1475 34.3813 33.4594 34.7668 33.4594H39.333C39.7186 33.4594 40.0311 33.1475 40.0311 32.7627V28.2056C40.0311 27.8209 39.7186 27.5089 39.333 27.5089Z" fill="#EBFF24"/>
<path d="M47.6976 27.5089H43.1314C42.7459 27.5089 42.4333 27.8209 42.4333 28.2056V32.7627C42.4333 33.1475 42.7459 33.4594 43.1314 33.4594H47.6976C48.0832 33.4594 48.3957 33.1475 48.3957 32.7627V28.2056C48.3957 27.8209 48.0832 27.5089 47.6976 27.5089Z" fill="#EBFF24"/>
<path d="M47.6976 35.8035H43.1314C42.7459 35.8035 42.4333 36.1154 42.4333 36.5002V41.0573C42.4333 41.4421 42.7459 41.754 43.1314 41.754H47.6976C48.0832 41.754 48.3957 41.4421 48.3957 41.0573V36.5002C48.3957 36.1154 48.0832 35.8035 47.6976 35.8035Z" fill="#EBFF24"/>
<path d="M39.333 35.8035H34.7668C34.3813 35.8035 34.0687 36.1154 34.0687 36.5002V41.0573C34.0687 41.4421 34.3813 41.754 34.7668 41.754H39.333C39.7186 41.754 40.0311 41.4421 40.0311 41.0573V36.5002C40.0311 36.1154 39.7186 35.8035 39.333 35.8035Z" fill="#EBFF24"/>
<path d="M30.9479 35.8035H26.3817C25.9961 35.8035 25.6836 36.1154 25.6836 36.5002V41.0573C25.6836 41.4421 25.9961 41.754 26.3817 41.754H30.9479C31.3334 41.754 31.646 41.4421 31.646 41.0573V36.5002C31.646 36.1154 31.3334 35.8035 30.9479 35.8035Z" fill="#EBFF24"/>
<path d="M22.5792 35.8035H18.013C17.6275 35.8035 17.3149 36.1154 17.3149 36.5002V41.0573C17.3149 41.4421 17.6275 41.754 18.013 41.754H22.5792C22.9648 41.754 23.2773 41.4421 23.2773 41.0573V36.5002C23.2773 36.1154 22.9648 35.8035 22.5792 35.8035Z" fill="#EBFF24"/>
<path d="M9.7757 35.8035H14.2187C14.6047 35.8035 14.9168 36.115 14.9168 36.5002V41.0614C14.9168 41.4466 14.6047 41.7581 14.2187 41.7581H9.7757C9.32401 41.7581 8.95444 41.3892 8.95444 40.9384V36.6272C8.95444 36.1764 9.32401 35.8076 9.7757 35.8076V35.8035Z" fill="#EBFF24"/>
<path d="M5.85415 35.8035H1.28792C0.902383 35.8035 0.589844 36.1154 0.589844 36.5002V41.0573C0.589844 41.4421 0.902383 41.754 1.28792 41.754H5.85415C6.23969 41.754 6.55223 41.4421 6.55223 41.0573V36.5002C6.55223 36.1154 6.23969 35.8035 5.85415 35.8035Z" fill="#EBFF24"/>
<path d="M5.85415 44.094H1.28792C0.902383 44.094 0.589844 44.4059 0.589844 44.7907V49.3478C0.589844 49.7325 0.902383 50.0445 1.28792 50.0445H5.85415C6.23969 50.0445 6.55223 49.7325 6.55223 49.3478V44.7907C6.55223 44.4059 6.23969 44.094 5.85415 44.094Z" fill="#EBFF24"/>
<path d="M14.2228 50.0445H9.77979C9.3281 50.0445 8.95853 49.6756 8.95853 49.2248V44.9136C8.95853 44.4628 9.3281 44.094 9.77979 44.094H14.2228C14.6088 44.094 14.9209 44.4055 14.9209 44.7907V49.3519C14.9209 49.7371 14.6088 50.0486 14.2228 50.0486V50.0445Z" fill="#EBFF24"/>
<path d="M22.5792 44.094H18.013C17.6275 44.094 17.3149 44.4059 17.3149 44.7907V49.3478C17.3149 49.7325 17.6275 50.0445 18.013 50.0445H22.5792C22.9648 50.0445 23.2773 49.7325 23.2773 49.3478V44.7907C23.2773 44.4059 22.9648 44.094 22.5792 44.094Z" fill="#EBFF24"/>
<path d="M30.9479 44.094H26.3817C25.9961 44.094 25.6836 44.4059 25.6836 44.7907V49.3478C25.6836 49.7325 25.9961 50.0445 26.3817 50.0445H30.9479C31.3334 50.0445 31.646 49.7325 31.646 49.3478V44.7907C31.646 44.4059 31.3334 44.094 30.9479 44.094Z" fill="#EBFF24"/>
<path d="M39.333 44.094H34.7668C34.3813 44.094 34.0687 44.4059 34.0687 44.7907V49.3478C34.0687 49.7325 34.3813 50.0445 34.7668 50.0445H39.333C39.7186 50.0445 40.0311 49.7325 40.0311 49.3478V44.7907C40.0311 44.4059 39.7186 44.094 39.333 44.094Z" fill="#EBFF24"/>
<path d="M30.9479 52.3886H26.3817C25.9961 52.3886 25.6836 52.7005 25.6836 53.0853V57.6424C25.6836 58.0271 25.9961 58.339 26.3817 58.339H30.9479C31.3334 58.339 31.646 58.0271 31.646 57.6424V53.0853C31.646 52.7005 31.3334 52.3886 30.9479 52.3886Z" fill="#EBFF24"/>
<path d="M22.5792 52.3886H18.013C17.6275 52.3886 17.3149 52.7005 17.3149 53.0853V57.6424C17.3149 58.0271 17.6275 58.339 18.013 58.339H22.5792C22.9648 58.339 23.2773 58.0271 23.2773 57.6424V53.0853C23.2773 52.7005 22.9648 52.3886 22.5792 52.3886Z" fill="#EBFF24"/>
<path d="M9.7757 52.3886H14.2187C14.6047 52.3886 14.9168 52.7 14.9168 53.0853V57.6465C14.9168 58.0317 14.6047 58.3431 14.2187 58.3431H9.7757C9.32401 58.3431 8.95444 57.9743 8.95444 57.5235V53.2123C8.95444 52.7615 9.32401 52.3927 9.7757 52.3927V52.3886Z" fill="#EBFF24"/>
<path d="M5.85415 52.3886H1.28792C0.902383 52.3886 0.589844 52.7005 0.589844 53.0853V57.6424C0.589844 58.0271 0.902383 58.339 1.28792 58.339H5.85415C6.23969 58.339 6.55223 58.0271 6.55223 57.6424V53.0853C6.55223 52.7005 6.23969 52.3886 5.85415 52.3886Z" fill="#EBFF24"/>
</g>
<defs>
<clipPath id="clip0_1_4">
<rect width="281" height="68" fill="white" transform="translate(0.589844 0.26059)"/>
</clipPath>
</defs>
</svg>
