<svg width="132" height="134" viewBox="0 0 132 134" fill="none" xmlns="http://www.w3.org/2000/svg">
<path d="M8.88766 125.906H12.8267V121.842H8.88766V125.906ZM12.8267 125.906H16.7657V121.842H12.8267V125.906ZM16.7657 125.906H20.7048V121.842H16.7657V125.906ZM20.7048 125.906H24.6438V121.842H20.7048V125.906ZM24.6438 125.906H28.5828V121.842H24.6438V125.906ZM28.5828 125.906H32.5219V121.842H28.5828V125.906ZM32.5219 125.906H36.4609V121.842H32.5219V125.906ZM40.3999 125.906H44.339V121.842H40.3999V125.906ZM44.339 125.906H48.278V121.842H44.339V125.906ZM56.1561 125.906H60.0951V121.842H56.1561V125.906ZM67.9732 125.906H71.9122V121.842H67.9732V125.906ZM71.9122 125.906H75.8512V121.842H71.9122V125.906ZM75.8512 125.906H79.7903V121.842H75.8512V125.906ZM95.5464 125.906H99.4855V121.842H95.5464V125.906ZM99.4855 125.906H103.424V121.842H99.4855V125.906ZM103.424 125.906H107.364V121.842H103.424V125.906ZM107.364 125.906H111.303V121.842H107.364V125.906ZM111.303 125.906H115.242V121.842H111.303V125.906ZM115.242 125.906H119.181V121.842H115.242V125.906ZM119.181 125.906H123.12V121.842H119.181V125.906ZM8.88766 121.842H12.8267V117.778H8.88766V121.842ZM32.5219 121.842H36.4609V117.778H32.5219V121.842ZM44.339 121.842H48.278V117.778H44.339V121.842ZM52.217 121.842H56.1561V117.778H52.217V121.842ZM56.1561 121.842H60.0951V117.778H56.1561V121.842ZM67.9732 121.842H71.9122V117.778H67.9732V121.842ZM71.9122 121.842H75.8512V117.778H71.9122V121.842ZM75.8512 121.842H79.7903V117.778H75.8512V121.842ZM87.6684 121.842H91.6074V117.778H87.6684V121.842ZM95.5464 121.842H99.4855V117.778H95.5464V121.842ZM119.181 121.842H123.12V117.778H119.181V121.842ZM8.88766 117.778H12.8267V113.713H8.88766V117.778ZM16.7657 117.778H20.7048V113.713H16.7657V117.778ZM20.7048 117.778H24.6438V113.713H20.7048V117.778ZM24.6438 117.778H28.5828V113.713H24.6438V117.778ZM32.5219 117.778H36.4609V113.713H32.5219V117.778ZM44.339 117.778H48.278V113.713H44.339V117.778ZM60.0951 117.778H64.0341V113.713H60.0951V117.778ZM79.7903 117.778H83.7293V113.713H79.7903V117.778ZM95.5464 117.778H99.4855V113.713H95.5464V117.778ZM103.424 117.778H107.364V113.713H103.424V117.778ZM107.364 117.778H111.303V113.713H107.364V117.778ZM111.303 117.778H115.242V113.713H111.303V117.778ZM119.181 117.778H123.12V113.713H119.181V117.778ZM8.88766 113.713H12.8267V109.649H8.88766V113.713ZM16.7657 113.713H20.7048V109.649H16.7657V113.713ZM20.7048 113.713H24.6438V109.649H20.7048V113.713ZM24.6438 113.713H28.5828V109.649H24.6438V113.713ZM32.5219 113.713H36.4609V109.649H32.5219V113.713ZM44.339 113.713H48.278V109.649H44.339V113.713ZM48.278 113.713H52.217V109.649H48.278V113.713ZM56.1561 113.713H60.0951V109.649H56.1561V113.713ZM64.0341 113.713H67.9732V109.649H64.0341V113.713ZM67.9732 113.713H71.9122V109.649H67.9732V113.713ZM75.8512 113.713H79.7903V109.649H75.8512V113.713ZM95.5464 113.713H99.4855V109.649H95.5464V113.713ZM103.424 113.713H107.364V109.649H103.424V113.713ZM107.364 113.713H111.303V109.649H107.364V113.713ZM111.303 113.713H115.242V109.649H111.303V113.713ZM119.181 113.713H123.12V109.649H119.181V113.713ZM8.88766 109.649H12.8267V105.585H8.88766V109.649ZM16.7657 109.649H20.7048V105.585H16.7657V109.649ZM20.7048 109.649H24.6438V105.585H20.7048V109.649ZM24.6438 109.649H28.5828V105.585H24.6438V109.649ZM32.5219 109.649H36.4609V105.585H32.5219V109.649ZM40.3999 109.649H44.339V105.585H40.3999V109.649ZM44.339 109.649H48.278V105.585H44.339V109.649ZM48.278 109.649H52.217V105.585H48.278V109.649ZM52.217 109.649H56.1561V105.585H52.217V109.649ZM60.0951 109.649H64.0341V105.585H60.0951V109.649ZM75.8512 109.649H79.7903V105.585H75.8512V109.649ZM83.7293 109.649H87.6684V105.585H83.7293V109.649ZM87.6684 109.649H91.6074V105.585H87.6684V109.649ZM95.5464 109.649H99.4855V105.585H95.5464V109.649ZM103.424 109.649H107.364V105.585H103.424V109.649ZM107.364 109.649H111.303V105.585H107.364V109.649ZM111.303 109.649H115.242V105.585H111.303V109.649ZM119.181 109.649H123.12V105.585H119.181V109.649ZM8.88766 105.585H12.8267V101.521H8.88766V105.585ZM32.5219 105.585H36.4609V101.521H32.5219V105.585ZM40.3999 105.585H44.339V101.521H40.3999V105.585ZM64.0341 105.585H67.9732V101.521H64.0341V105.585ZM67.9732 105.585H71.9122V101.521H67.9732V105.585ZM75.8512 105.585H79.7903V101.521H75.8512V105.585ZM87.6684 105.585H91.6074V101.521H87.6684V105.585ZM95.5464 105.585H99.4855V101.521H95.5464V105.585ZM119.181 105.585H123.12V101.521H119.181V105.585ZM8.88766 101.521H12.8267V97.4568H8.88766V101.521ZM12.8267 101.521H16.7657V97.4568H12.8267V101.521ZM16.7657 101.521H20.7048V97.4568H16.7657V101.521ZM20.7048 101.521H24.6438V97.4568H20.7048V101.521ZM24.6438 101.521H28.5828V97.4568H24.6438V101.521ZM28.5828 101.521H32.5219V97.4568H28.5828V101.521ZM32.5219 101.521H36.4609V97.4568H32.5219V101.521ZM40.3999 101.521H44.339V97.4568H40.3999V101.521ZM48.278 101.521H52.217V97.4568H48.278V101.521ZM56.1561 101.521H60.0951V97.4568H56.1561V101.521ZM64.0341 101.521H67.9732V97.4568H64.0341V101.521ZM71.9122 101.521H75.8512V97.4568H71.9122V101.521ZM79.7903 101.521H83.7293V97.4568H79.7903V101.521ZM87.6684 101.521H91.6074V97.4568H87.6684V101.521ZM95.5464 101.521H99.4855V97.4568H95.5464V101.521ZM99.4855 101.521H103.424V97.4568H99.4855V101.521ZM103.424 101.521H107.364V97.4568H103.424V101.521ZM107.364 101.521H111.303V97.4568H107.364V101.521ZM111.303 101.521H115.242V97.4568H111.303V101.521ZM115.242 101.521H119.181V97.4568H115.242V101.521ZM119.181 101.521H123.12V97.4568H119.181V101.521ZM48.278 97.4568H52.217V93.3926H48.278V97.4568ZM52.217 97.4568H56.1561V93.3926H52.217V97.4568ZM60.0951 97.4568H64.0341V93.3926H60.0951V97.4568ZM75.8512 97.4568H79.7903V93.3926H75.8512V97.4568ZM79.7903 97.4568H83.7293V93.3926H79.7903V97.4568ZM87.6684 97.4568H91.6074V93.3926H87.6684V97.4568ZM12.8267 93.3926H16.7657V89.3285H12.8267V93.3926ZM16.7657 93.3926H20.7048V89.3285H16.7657V93.3926ZM20.7048 93.3926H24.6438V89.3285H20.7048V93.3926ZM24.6438 93.3926H28.5828V89.3285H24.6438V93.3926ZM28.5828 93.3926H32.5219V89.3285H28.5828V93.3926ZM32.5219 93.3926H36.4609V89.3285H32.5219V93.3926ZM36.4609 93.3926H40.3999V89.3285H36.4609V93.3926ZM52.217 93.3926H56.1561V89.3285H52.217V93.3926ZM56.1561 93.3926H60.0951V89.3285H56.1561V93.3926ZM64.0341 93.3926H67.9732V89.3285H64.0341V93.3926ZM67.9732 93.3926H71.9122V89.3285H67.9732V93.3926ZM99.4855 93.3926H103.424V89.3285H99.4855V93.3926ZM103.424 93.3926H107.364V89.3285H103.424V93.3926ZM119.181 93.3926H123.12V89.3285H119.181V93.3926ZM8.88766 89.3285H12.8267V85.2643H8.88766V89.3285ZM12.8267 89.3285H16.7657V85.2643H12.8267V89.3285ZM16.7657 89.3285H20.7048V85.2643H16.7657V89.3285ZM28.5828 89.3285H32.5219V85.2643H28.5828V89.3285ZM40.3999 89.3285H44.339V85.2643H40.3999V89.3285ZM52.217 89.3285H56.1561V85.2643H52.217V89.3285ZM56.1561 89.3285H60.0951V85.2643H56.1561V89.3285ZM60.0951 89.3285H64.0341V85.2643H60.0951V89.3285ZM71.9122 89.3285H75.8512V85.2643H71.9122V89.3285ZM79.7903 89.3285H83.7293V85.2643H79.7903V89.3285ZM87.6684 89.3285H91.6074V85.2643H87.6684V89.3285ZM91.6074 89.3285H95.5464V85.2643H91.6074V89.3285ZM95.5464 89.3285H99.4855V85.2643H95.5464V89.3285ZM99.4855 89.3285H103.424V85.2643H99.4855V89.3285ZM103.424 89.3285H107.364V85.2643H103.424V89.3285ZM111.303 89.3285H115.242V85.2643H111.303V89.3285ZM119.181 89.3285H123.12V85.2643H119.181V89.3285ZM8.88766 85.2643H12.8267V81.2001H8.88766V85.2643ZM28.5828 85.2643H32.5219V81.2001H28.5828V85.2643ZM32.5219 85.2643H36.4609V81.2001H32.5219V85.2643ZM44.339 85.2643H48.278V81.2001H44.339V85.2643ZM60.0951 85.2643H64.0341V81.2001H60.0951V85.2643ZM67.9732 85.2643H71.9122V81.2001H67.9732V85.2643ZM75.8512 85.2643H79.7903V81.2001H75.8512V85.2643ZM79.7903 85.2643H83.7293V81.2001H79.7903V85.2643ZM83.7293 85.2643H87.6684V81.2001H83.7293V85.2643ZM91.6074 85.2643H95.5464V81.2001H91.6074V85.2643ZM95.5464 85.2643H99.4855V81.2001H95.5464V85.2643ZM8.88766 81.2001H12.8267V77.136H8.88766V81.2001ZM16.7657 81.2001H20.7048V77.136H16.7657V81.2001ZM20.7048 81.2001H24.6438V77.136H20.7048V81.2001ZM24.6438 81.2001H28.5828V77.136H24.6438V81.2001ZM28.5828 81.2001H32.5219V77.136H28.5828V81.2001ZM36.4609 81.2001H40.3999V77.136H36.4609V81.2001ZM40.3999 81.2001H44.339V77.136H40.3999V81.2001ZM48.278 81.2001H52.217V77.136H48.278V81.2001ZM52.217 81.2001H56.1561V77.136H52.217V81.2001ZM56.1561 81.2001H60.0951V77.136H56.1561V81.2001ZM64.0341 81.2001H67.9732V77.136H64.0341V81.2001ZM83.7293 81.2001H87.6684V77.136H83.7293V81.2001ZM87.6684 81.2001H91.6074V77.136H87.6684V81.2001ZM91.6074 81.2001H95.5464V77.136H91.6074V81.2001ZM95.5464 81.2001H99.4855V77.136H95.5464V81.2001ZM99.4855 81.2001H103.424V77.136H99.4855V81.2001ZM107.364 81.2001H111.303V77.136H107.364V81.2001ZM115.242 81.2001H119.181V77.136H115.242V81.2001ZM8.88766 77.136H12.8267V73.0718H8.88766V77.136ZM24.6438 77.136H28.5828V73.0718H24.6438V77.136ZM28.5828 77.136H32.5219V73.0718H28.5828V77.136ZM32.5219 77.136H36.4609V73.0718H32.5219V77.136ZM36.4609 77.136H40.3999V73.0718H36.4609V77.136ZM56.1561 77.136H60.0951V73.0718H56.1561V77.136ZM64.0341 77.136H67.9732V73.0718H64.0341V77.136ZM67.9732 77.136H71.9122V73.0718H67.9732V77.136ZM71.9122 77.136H75.8512V73.0718H71.9122V77.136ZM75.8512 77.136H79.7903V73.0718H75.8512V77.136ZM83.7293 77.136H87.6684V73.0718H83.7293V77.136ZM91.6074 77.136H95.5464V73.0718H91.6074V77.136ZM99.4855 77.136H103.424V73.0718H99.4855V77.136ZM111.303 77.136H115.242V73.0718H111.303V77.136ZM115.242 77.136H119.181V73.0718H115.242V77.136ZM119.181 77.136H123.12V73.0718H119.181V77.136ZM24.6438 73.0718H28.5828V69.0077H24.6438V73.0718ZM28.5828 73.0718H32.5219V69.0077H28.5828V73.0718ZM36.4609 73.0718H40.3999V69.0077H36.4609V73.0718ZM44.339 73.0718H48.278V69.0077H44.339V73.0718ZM52.217 73.0718H56.1561V69.0077H52.217V73.0718ZM56.1561 73.0718H60.0951V69.0077H56.1561V73.0718ZM67.9732 73.0718H71.9122V69.0077H67.9732V73.0718ZM79.7903 73.0718H83.7293V69.0077H79.7903V73.0718ZM83.7293 73.0718H87.6684V69.0077H83.7293V73.0718ZM87.6684 73.0718H91.6074V69.0077H87.6684V73.0718ZM91.6074 73.0718H95.5464V69.0077H91.6074V73.0718ZM95.5464 73.0718H99.4855V69.0077H95.5464V73.0718ZM103.424 73.0718H107.364V69.0077H103.424V73.0718ZM107.364 73.0718H111.303V69.0077H107.364V73.0718ZM119.181 73.0718H123.12V69.0077H119.181V73.0718ZM8.88766 69.0077H12.8267V64.9435H8.88766V69.0077ZM16.7657 69.0077H20.7048V64.9435H16.7657V69.0077ZM20.7048 69.0077H24.6438V64.9435H20.7048V69.0077ZM24.6438 69.0077H28.5828V64.9435H24.6438V69.0077ZM28.5828 69.0077H32.5219V64.9435H28.5828V69.0077ZM32.5219 69.0077H36.4609V64.9435H32.5219V69.0077ZM40.3999 69.0077H44.339V64.9435H40.3999V69.0077ZM44.339 69.0077H48.278V64.9435H44.339V69.0077ZM64.0341 69.0077H67.9732V64.9435H64.0341V69.0077ZM71.9122 69.0077H75.8512V64.9435H71.9122V69.0077ZM79.7903 69.0077H83.7293V64.9435H79.7903V69.0077ZM99.4855 69.0077H103.424V64.9435H99.4855V69.0077ZM12.8267 64.9435H16.7657V60.8794H12.8267V64.9435ZM20.7048 64.9435H24.6438V60.8794H20.7048V64.9435ZM28.5828 64.9435H32.5219V60.8794H28.5828V64.9435ZM36.4609 64.9435H40.3999V60.8794H36.4609V64.9435ZM44.339 64.9435H48.278V60.8794H44.339V64.9435ZM48.278 64.9435H52.217V60.8794H48.278V64.9435ZM52.217 64.9435H56.1561V60.8794H52.217V64.9435ZM60.0951 64.9435H64.0341V60.8794H60.0951V64.9435ZM64.0341 64.9435H67.9732V60.8794H64.0341V64.9435ZM71.9122 64.9435H75.8512V60.8794H71.9122V64.9435ZM87.6684 64.9435H91.6074V60.8794H87.6684V64.9435ZM95.5464 64.9435H99.4855V60.8794H95.5464V64.9435ZM103.424 64.9435H107.364V60.8794H103.424V64.9435ZM107.364 64.9435H111.303V60.8794H107.364V64.9435ZM20.7048 60.8794H24.6438V56.8152H20.7048V60.8794ZM24.6438 60.8794H28.5828V56.8152H24.6438V60.8794ZM28.5828 60.8794H32.5219V56.8152H28.5828V60.8794ZM32.5219 60.8794H36.4609V56.8152H32.5219V60.8794ZM40.3999 60.8794H44.339V56.8152H40.3999V60.8794ZM52.217 60.8794H56.1561V56.8152H52.217V60.8794ZM64.0341 60.8794H67.9732V56.8152H64.0341V60.8794ZM79.7903 60.8794H83.7293V56.8152H79.7903V60.8794ZM107.364 60.8794H111.303V56.8152H107.364V60.8794ZM111.303 60.8794H115.242V56.8152H111.303V60.8794ZM8.88766 56.8152H12.8267V52.751H8.88766V56.8152ZM12.8267 56.8152H16.7657V52.751H12.8267V56.8152ZM16.7657 56.8152H20.7048V52.751H16.7657V56.8152ZM24.6438 56.8152H28.5828V52.751H24.6438V56.8152ZM28.5828 56.8152H32.5219V52.751H28.5828V56.8152ZM40.3999 56.8152H44.339V52.751H40.3999V56.8152ZM44.339 56.8152H48.278V52.751H44.339V56.8152ZM48.278 56.8152H52.217V52.751H48.278V56.8152ZM52.217 56.8152H56.1561V52.751H52.217V56.8152ZM56.1561 56.8152H60.0951V52.751H56.1561V56.8152ZM67.9732 56.8152H71.9122V52.751H67.9732V56.8152ZM71.9122 56.8152H75.8512V52.751H71.9122V56.8152ZM75.8512 56.8152H79.7903V52.751H75.8512V56.8152ZM91.6074 56.8152H95.5464V52.751H91.6074V56.8152ZM95.5464 56.8152H99.4855V52.751H95.5464V56.8152ZM99.4855 56.8152H103.424V52.751H99.4855V56.8152ZM103.424 56.8152H107.364V52.751H103.424V56.8152ZM115.242 56.8152H119.181V52.751H115.242V56.8152ZM119.181 56.8152H123.12V52.751H119.181V56.8152ZM8.88766 52.751H12.8267V48.6869H8.88766V52.751ZM28.5828 52.751H32.5219V48.6869H28.5828V52.751ZM32.5219 52.751H36.4609V48.6869H32.5219V52.751ZM36.4609 52.751H40.3999V48.6869H36.4609V52.751ZM44.339 52.751H48.278V48.6869H44.339V52.751ZM64.0341 52.751H67.9732V48.6869H64.0341V52.751ZM79.7903 52.751H83.7293V48.6869H79.7903V52.751ZM87.6684 52.751H91.6074V48.6869H87.6684V52.751ZM95.5464 52.751H99.4855V48.6869H95.5464V52.751ZM99.4855 52.751H103.424V48.6869H99.4855V52.751ZM103.424 52.751H107.364V48.6869H103.424V52.751ZM107.364 52.751H111.303V48.6869H107.364V52.751ZM111.303 52.751H115.242V48.6869H111.303V52.751ZM8.88766 48.6869H12.8267V44.6227H8.88766V48.6869ZM28.5828 48.6869H32.5219V44.6227H28.5828V48.6869ZM36.4609 48.6869H40.3999V44.6227H36.4609V48.6869ZM48.278 48.6869H52.217V44.6227H48.278V48.6869ZM60.0951 48.6869H64.0341V44.6227H60.0951V48.6869ZM71.9122 48.6869H75.8512V44.6227H71.9122V48.6869ZM83.7293 48.6869H87.6684V44.6227H83.7293V48.6869ZM87.6684 48.6869H91.6074V44.6227H87.6684V48.6869ZM95.5464 48.6869H99.4855V44.6227H95.5464V48.6869ZM103.424 48.6869H107.364V44.6227H103.424V48.6869ZM107.364 48.6869H111.303V44.6227H107.364V48.6869ZM8.88766 44.6227H12.8267V40.5586H8.88766V44.6227ZM24.6438 44.6227H28.5828V40.5586H24.6438V44.6227ZM28.5828 44.6227H32.5219V40.5586H28.5828V44.6227ZM32.5219 44.6227H36.4609V40.5586H32.5219V44.6227ZM44.339 44.6227H48.278V40.5586H44.339V44.6227ZM75.8512 44.6227H79.7903V40.5586H75.8512V44.6227ZM83.7293 44.6227H87.6684V40.5586H83.7293V44.6227ZM87.6684 44.6227H91.6074V40.5586H87.6684V44.6227ZM91.6074 44.6227H95.5464V40.5586H91.6074V44.6227ZM95.5464 44.6227H99.4855V40.5586H95.5464V44.6227ZM99.4855 44.6227H103.424V40.5586H99.4855V44.6227ZM103.424 44.6227H107.364V40.5586H103.424V44.6227ZM111.303 44.6227H115.242V40.5586H111.303V44.6227ZM115.242 44.6227H119.181V40.5586H115.242V44.6227ZM119.181 44.6227H123.12V40.5586H119.181V44.6227ZM40.3999 40.5586H44.339V36.4944H40.3999V40.5586ZM52.217 40.5586H56.1561V36.4944H52.217V40.5586ZM60.0951 40.5586H64.0341V36.4944H60.0951V40.5586ZM75.8512 40.5586H79.7903V36.4944H75.8512V40.5586ZM87.6684 40.5586H91.6074V36.4944H87.6684V40.5586ZM103.424 40.5586H107.364V36.4944H103.424V40.5586ZM107.364 40.5586H111.303V36.4944H107.364V40.5586ZM115.242 40.5586H119.181V36.4944H115.242V40.5586ZM119.181 40.5586H123.12V36.4944H119.181V40.5586ZM8.88766 36.4944H12.8267V32.4303H8.88766V36.4944ZM12.8267 36.4944H16.7657V32.4303H12.8267V36.4944ZM16.7657 36.4944H20.7048V32.4303H16.7657V36.4944ZM20.7048 36.4944H24.6438V32.4303H20.7048V36.4944ZM24.6438 36.4944H28.5828V32.4303H24.6438V36.4944ZM28.5828 36.4944H32.5219V32.4303H28.5828V36.4944ZM32.5219 36.4944H36.4609V32.4303H32.5219V36.4944ZM40.3999 36.4944H44.339V32.4303H40.3999V36.4944ZM56.1561 36.4944H60.0951V32.4303H56.1561V36.4944ZM64.0341 36.4944H67.9732V32.4303H64.0341V36.4944ZM67.9732 36.4944H71.9122V32.4303H67.9732V36.4944ZM71.9122 36.4944H75.8512V32.4303H71.9122V36.4944ZM75.8512 36.4944H79.7903V32.4303H75.8512V36.4944ZM83.7293 36.4944H87.6684V32.4303H83.7293V36.4944ZM87.6684 36.4944H91.6074V32.4303H87.6684V36.4944ZM95.5464 36.4944H99.4855V32.4303H95.5464V36.4944ZM103.424 36.4944H107.364V32.4303H103.424V36.4944ZM8.88766 32.4303H12.8267V28.3661H8.88766V32.4303ZM32.5219 32.4303H36.4609V28.3661H32.5219V32.4303ZM40.3999 32.4303H44.339V28.3661H40.3999V32.4303ZM44.339 32.4303H48.278V28.3661H44.339V32.4303ZM48.278 32.4303H52.217V28.3661H48.278V32.4303ZM52.217 32.4303H56.1561V28.3661H52.217V32.4303ZM56.1561 32.4303H60.0951V28.3661H56.1561V32.4303ZM67.9732 32.4303H71.9122V28.3661H67.9732V32.4303ZM75.8512 32.4303H79.7903V28.3661H75.8512V32.4303ZM79.7903 32.4303H83.7293V28.3661H79.7903V32.4303ZM83.7293 32.4303H87.6684V28.3661H83.7293V32.4303ZM87.6684 32.4303H91.6074V28.3661H87.6684V32.4303ZM103.424 32.4303H107.364V28.3661H103.424V32.4303ZM107.364 32.4303H111.303V28.3661H107.364V32.4303ZM115.242 32.4303H119.181V28.3661H115.242V32.4303ZM119.181 32.4303H123.12V28.3661H119.181V32.4303ZM8.88766 28.3661H12.8267V24.3019H8.88766V28.3661ZM16.7657 28.3661H20.7048V24.3019H16.7657V28.3661ZM20.7048 28.3661H24.6438V24.3019H20.7048V28.3661ZM24.6438 28.3661H28.5828V24.3019H24.6438V28.3661ZM32.5219 28.3661H36.4609V24.3019H32.5219V28.3661ZM40.3999 28.3661H44.339V24.3019H40.3999V28.3661ZM44.339 28.3661H48.278V24.3019H44.339V28.3661ZM48.278 28.3661H52.217V24.3019H48.278V28.3661ZM52.217 28.3661H56.1561V24.3019H52.217V28.3661ZM56.1561 28.3661H60.0951V24.3019H56.1561V28.3661ZM71.9122 28.3661H75.8512V24.3019H71.9122V28.3661ZM87.6684 28.3661H91.6074V24.3019H87.6684V28.3661ZM91.6074 28.3661H95.5464V24.3019H91.6074V28.3661ZM95.5464 28.3661H99.4855V24.3019H95.5464V28.3661ZM99.4855 28.3661H103.424V24.3019H99.4855V28.3661ZM103.424 28.3661H107.364V24.3019H103.424V28.3661ZM107.364 28.3661H111.303V24.3019H107.364V28.3661ZM111.303 28.3661H115.242V24.3019H111.303V28.3661ZM119.181 28.3661H123.12V24.3019H119.181V28.3661ZM8.88766 24.3019H12.8267V20.2378H8.88766V24.3019ZM16.7657 24.3019H20.7048V20.2378H16.7657V24.3019ZM20.7048 24.3019H24.6438V20.2378H20.7048V24.3019ZM24.6438 24.3019H28.5828V20.2378H24.6438V24.3019ZM32.5219 24.3019H36.4609V20.2378H32.5219V24.3019ZM40.3999 24.3019H44.339V20.2378H40.3999V24.3019ZM44.339 24.3019H48.278V20.2378H44.339V24.3019ZM48.278 24.3019H52.217V20.2378H48.278V24.3019ZM56.1561 24.3019H60.0951V20.2378H56.1561V24.3019ZM60.0951 24.3019H64.0341V20.2378H60.0951V24.3019ZM67.9732 24.3019H71.9122V20.2378H67.9732V24.3019ZM79.7903 24.3019H83.7293V20.2378H79.7903V24.3019ZM83.7293 24.3019H87.6684V20.2378H83.7293V24.3019ZM87.6684 24.3019H91.6074V20.2378H87.6684V24.3019ZM91.6074 24.3019H95.5464V20.2378H91.6074V24.3019ZM99.4855 24.3019H103.424V20.2378H99.4855V24.3019ZM111.303 24.3019H115.242V20.2378H111.303V24.3019ZM8.88766 20.2378H12.8267V16.1736H8.88766V20.2378ZM16.7657 20.2378H20.7048V16.1736H16.7657V20.2378ZM20.7048 20.2378H24.6438V16.1736H20.7048V20.2378ZM24.6438 20.2378H28.5828V16.1736H24.6438V20.2378ZM32.5219 20.2378H36.4609V16.1736H32.5219V20.2378ZM40.3999 20.2378H44.339V16.1736H40.3999V20.2378ZM44.339 20.2378H48.278V16.1736H44.339V20.2378ZM48.278 20.2378H52.217V16.1736H48.278V20.2378ZM56.1561 20.2378H60.0951V16.1736H56.1561V20.2378ZM60.0951 20.2378H64.0341V16.1736H60.0951V20.2378ZM67.9732 20.2378H71.9122V16.1736H67.9732V20.2378ZM71.9122 20.2378H75.8512V16.1736H71.9122V20.2378ZM83.7293 20.2378H87.6684V16.1736H83.7293V20.2378ZM87.6684 20.2378H91.6074V16.1736H87.6684V20.2378ZM91.6074 20.2378H95.5464V16.1736H91.6074V20.2378ZM95.5464 20.2378H99.4855V16.1736H95.5464V20.2378ZM99.4855 20.2378H103.424V16.1736H99.4855V20.2378ZM103.424 20.2378H107.364V16.1736H103.424V20.2378ZM115.242 20.2378H119.181V16.1736H115.242V20.2378ZM8.88766 16.1736H12.8267V12.1095H8.88766V16.1736ZM32.5219 16.1736H36.4609V12.1095H32.5219V16.1736ZM40.3999 16.1736H44.339V12.1095H40.3999V16.1736ZM48.278 16.1736H52.217V12.1095H48.278V16.1736ZM56.1561 16.1736H60.0951V12.1095H56.1561V16.1736ZM67.9732 16.1736H71.9122V12.1095H67.9732V16.1736ZM79.7903 16.1736H83.7293V12.1095H79.7903V16.1736ZM87.6684 16.1736H91.6074V12.1095H87.6684V16.1736ZM103.424 16.1736H107.364V12.1095H103.424V16.1736ZM107.364 16.1736H111.303V12.1095H107.364V16.1736ZM115.242 16.1736H119.181V12.1095H115.242V16.1736ZM8.88766 12.1095H12.8267V8.04531H8.88766V12.1095ZM12.8267 12.1095H16.7657V8.04531H12.8267V12.1095ZM16.7657 12.1095H20.7048V8.04531H16.7657V12.1095ZM20.7048 12.1095H24.6438V8.04531H20.7048V12.1095ZM24.6438 12.1095H28.5828V8.04531H24.6438V12.1095ZM28.5828 12.1095H32.5219V8.04531H28.5828V12.1095ZM32.5219 12.1095H36.4609V8.04531H32.5219V12.1095ZM44.339 12.1095H48.278V8.04531H44.339V12.1095ZM48.278 12.1095H52.217V8.04531H48.278V12.1095ZM52.217 12.1095H56.1561V8.04531H52.217V12.1095ZM64.0341 12.1095H67.9732V8.04531H64.0341V12.1095ZM67.9732 12.1095H71.9122V8.04531H67.9732V12.1095ZM71.9122 12.1095H75.8512V8.04531H71.9122V12.1095ZM75.8512 12.1095H79.7903V8.04531H75.8512V12.1095ZM103.424 12.1095H107.364V8.04531H103.424V12.1095ZM111.303 12.1095H115.242V8.04531H111.303V12.1095Z" fill="#EBFF24"/>
</svg>
