<svg width="171" height="192" viewBox="0 0 171 192" fill="none" xmlns="http://www.w3.org/2000/svg">
<g clip-path="url(#clip0_121_2)">
<path d="M83.758 70.6916C96.1438 56.1505 107.528 45.4204 116.123 38.0187C119.559 35.0551 131.23 24.9503 142.751 18.3796C142.751 18.3796 150.537 13.9429 162.324 9.37941C162.837 9.17912 163.178 9.07109 163.579 8.94451C166.503 8.01685 168.198 7.48061 169.13 8.15405C170.049 8.81758 169.895 10.4391 169.585 13.6867C169.444 15.16 169.193 16.4043 168.691 18.8929C168.352 20.5698 168.068 21.8345 168.017 22.0571C165.627 32.4604 161.711 40.6306 161.711 40.6306C160.469 43.6704 156.376 53.4208 146.066 69.2463C145.996 69.3545 144.788 71.0811 142.929 73.7219C137.515 81.4023 126.561 96.8225 121.869 102.698C119.882 103.49 116.692 104.473 112.74 104.413C104.691 104.288 99.1289 99.9107 95.7153 97.2157C92.2844 94.5105 84.4641 88.348 83.316 78.2838C82.9509 75.0899 83.3619 72.4143 83.7541 70.6823L83.758 70.6916Z" fill="#6CC481" stroke="black" stroke-miterlimit="10"/>
<path d="M142.75 73.9765C143.677 75.9154 144.873 79.0841 145.046 83.1284C145.141 85.4405 144.88 87.4345 144.55 88.9809C143.405 93.049 142.019 97.3448 140.346 101.816C137.375 109.756 134.049 116.751 130.756 122.789C127.793 116.092 124.879 109.448 121.916 102.756" fill="#6CC481"/>
<path d="M142.75 73.9765C143.677 75.9154 144.873 79.0841 145.046 83.1284C145.141 85.4405 144.88 87.4345 144.55 88.9809C143.405 93.049 142.019 97.3448 140.346 101.816C137.375 109.756 134.049 116.751 130.756 122.789C127.793 116.092 124.879 109.448 121.916 102.756" stroke="black" stroke-miterlimit="10"/>
<path d="M107.815 44.4361C103.326 43.6379 98.837 42.8397 94.3482 42.0415C91.5772 42.9457 88.6557 44.0464 85.642 45.397C75.8378 49.797 68.3981 55.803 62.7801 60.828C69.7078 64.1863 76.4706 67.1299 83.3983 70.4882" fill="#6CC481"/>
<path d="M107.815 44.4361C103.326 43.6379 98.837 42.8397 94.3482 42.0415C91.5772 42.9457 88.6557 44.0464 85.642 45.397C75.8378 49.797 68.3981 55.803 62.7801 60.828C69.7078 64.1863 76.4706 67.1299 83.3983 70.4882" stroke="black" stroke-miterlimit="10"/>
<path d="M62.5939 60.5423C62.2791 60.1322 61.9692 59.7179 61.6545 59.3078C66.7387 54.9007 73.7016 49.8342 82.6922 45.6374C86.9547 43.6475 91.007 42.1679 94.6967 41.0524C99.75 41.8919 104.803 42.7314 109.861 43.5712" stroke="black" stroke-miterlimit="10"/>
<path d="M61.4444 59.3393L62.42 60.6899C73.775 51.4659 80.6048 47.0109 94.8912 42.3198L108.803 44.5026L109.768 43.719L94.4521 41.1147C79.7889 45.5218 72.9687 50.134 61.4444 59.3393Z" fill="#2CA85E" stroke="black"/>
<path d="M142.751 18.3796C143.191 20.4754 144.457 25.0684 148.412 29.1473C154.389 35.316 162.046 35.7124 163.777 35.7619" stroke="black" stroke-miterlimit="10"/>
<path d="M121.975 60.8698L124.865 63.4435L120.13 70.1482L117.162 67.8586L121.975 60.8698Z" fill="#2CA85E" stroke="black" stroke-miterlimit="10"/>
<path d="M120.13 70.1482L93.7845 101.506L90.7852 99.2146L117.162 67.8586" fill="#2CA85E"/>
<path d="M120.13 70.1482L93.7845 101.506L90.7852 99.2146L117.162 67.8586" stroke="black" stroke-miterlimit="10"/>
<path d="M92.3543 94.4112L90.7852 99.2146" stroke="black" stroke-miterlimit="10"/>
<path d="M153.087 45.0064C152.589 52.3611 146.158 57.9197 138.716 57.4158C131.275 56.912 125.651 50.537 126.149 43.1823C126.647 35.8275 133.079 30.2689 140.52 30.7728C147.962 31.2767 153.585 37.6517 153.087 45.0064Z" fill="#195C34" stroke="black" stroke-width="0.5"/>
<path d="M152.097 45.5514C151.632 52.42 145.506 57.6251 138.384 57.1428C131.261 56.6605 125.892 50.677 126.358 43.8084C126.823 36.9397 132.949 31.7346 140.071 32.217C147.194 32.6993 152.563 38.6827 152.097 45.5514Z" fill="#2CA85E" stroke="black"/>
<ellipse cx="139.266" cy="44.6846" rx="8.44707" ry="8.57364" transform="rotate(3.87391 139.266 44.6846)" fill="url(#paint0_linear_121_2)"/>
<ellipse cx="139.727" cy="43.9783" rx="8.03445" ry="7.83774" transform="rotate(3.87391 139.727 43.9783)" fill="url(#paint1_linear_121_2)"/>
<path d="M169.096 8.10587C165.883 6.88037 154.071 12.1448 142.784 18.3819C146.363 30.3148 151.229 33.8551 163.757 35.9293C164.878 36.1091 172.31 9.33136 169.096 8.10587Z" fill="#E3FF6F" stroke="black"/>
<path d="M92.288 94.4335L90.662 99.2463L93.724 95.6696L92.288 94.4335Z" fill="#2CA85E" stroke="black"/>
<g clip-path="url(#clip1_121_2)">
<path d="M95.9014 17.9454C96.5036 9.05223 96.5445 9.09918 87.6795 8.49889C96.5445 9.09918 96.4976 9.1402 97.0998 0.246985C96.4976 9.1402 96.4568 9.09324 105.322 9.69354C96.4568 9.09324 96.5036 9.05223 95.9014 17.9454Z" fill="#F3F3F3"/>
</g>
<g clip-path="url(#clip2_121_2)">
<path d="M157.316 123.099C157.665 117.95 157.688 117.977 152.556 117.63C157.688 117.977 157.661 118.001 158.01 112.852C157.661 118.001 157.638 117.974 162.77 118.321C157.638 117.974 157.665 117.95 157.316 123.099Z" fill="#F3F3F3"/>
</g>
</g>
<circle r="1.07763" transform="matrix(0.00657868 -0.999978 -0.999978 -0.00657868 89.7872 190.863)" fill="#E2FF6F"/>
<circle r="1.07763" transform="matrix(0.00657868 -0.999978 -0.999978 -0.00657868 89.8329 183.929)" fill="#E2FF6F"/>
<circle r="1.07763" transform="matrix(0.00657868 -0.999978 -0.999978 -0.00657868 93.2816 180.442)" fill="#E2FF6F"/>
<circle r="1.07763" transform="matrix(0.00657868 -0.999978 -0.999978 -0.00657868 86.1798 180.395)" fill="#E2FF6F"/>
<circle r="1.07763" transform="matrix(0.00657868 -0.999978 -0.999978 -0.00657868 89.8785 176.994)" fill="#E2FF6F"/>
<circle r="1.07763" transform="matrix(0.00657868 -0.999978 -0.999978 -0.00657868 93.3264 173.632)" fill="#E2FF6F"/>
<circle r="1.07763" transform="matrix(0.00657868 -0.999978 -0.999978 -0.00657868 89.9258 169.808)" fill="#E2FF6F"/>
<circle r="1.07763" transform="matrix(0.00657868 -0.999978 -0.999978 -0.00657868 86.2246 173.586)" fill="#E2FF6F"/>
<circle r="1.07763" transform="matrix(0.00657868 -0.999978 -0.999978 -0.00657868 82.6932 176.946)" fill="#E2FF6F"/>
<circle r="1.07763" transform="matrix(0.00657868 -0.999978 -0.999978 -0.00657868 82.7405 169.761)" fill="#E2FF6F"/>
<circle r="1.07763" transform="matrix(0.00657868 -0.999978 -0.999978 -0.00657868 86.2694 166.776)" fill="#E2FF6F"/>
<circle r="1.07763" transform="matrix(0.00657868 -0.999978 -0.999978 -0.00657868 82.7844 163.093)" fill="#E2FF6F"/>
<circle r="1.07763" transform="matrix(0.00657868 -0.999978 -0.999978 -0.00657868 76.0748 163.049)" fill="#E2FF6F"/>
<circle r="1.07763" transform="matrix(0.00657868 -0.999978 -0.999978 -0.00657868 79.5304 159.335)" fill="#E2FF6F"/>
<circle r="1.07763" transform="matrix(0.00657868 -0.999978 -0.999978 -0.00657868 86.318 159.38)" fill="#E2FF6F"/>
<circle r="1.07763" transform="matrix(0.00657868 -0.999978 -0.999978 -0.00657868 90.017 155.938)" fill="#E2FF6F"/>
<circle r="1.07763" transform="matrix(0.00657868 -0.999978 -0.999978 -0.00657868 82.8317 155.891)" fill="#E2FF6F"/>
<circle r="1.07763" transform="matrix(0.00657868 -0.999978 -0.999978 -0.00657868 86.3628 152.57)" fill="#E2FF6F"/>
<circle r="1.07763" transform="matrix(0.00657868 -0.999978 -0.999978 -0.00657868 79.5752 152.526)" fill="#E2FF6F"/>
<circle r="1.07763" transform="matrix(0.00657868 -0.999978 -0.999978 -0.00657868 82.8756 149.223)" fill="#E2FF6F"/>
<circle r="1.07763" transform="matrix(0.00657868 -0.999978 -0.999978 -0.00657868 90.0609 149.27)" fill="#E2FF6F"/>
<circle r="1.07763" transform="matrix(0.00657868 -0.999978 -0.999978 -0.00657868 93.5111 145.557)" fill="#E2FF6F"/>
<circle r="1.07763" transform="matrix(0.00657868 -0.999978 -0.999978 -0.00657868 86.4093 145.51)" fill="#E2FF6F"/>
<circle r="1.07763" transform="matrix(0.00657868 -0.999978 -0.999978 -0.00657868 79.6216 145.465)" fill="#E2FF6F"/>
<circle r="1.07763" transform="matrix(0.00657868 -0.999978 -0.999978 -0.00657868 76.1661 149.179)" fill="#E2FF6F"/>
<circle r="1.07763" transform="matrix(0.00657868 -0.999978 -0.999978 -0.00657868 72.8343 145.421)" fill="#E2FF6F"/>
<circle r="1.07763" transform="matrix(0.00657868 -0.999978 -0.999978 -0.00657868 76.2132 142.012)" fill="#E2FF6F"/>
<circle r="1.07763" transform="matrix(0.00657868 -0.999978 -0.999978 -0.00657868 82.9228 142.056)" fill="#E2FF6F"/>
<circle r="1.07763" transform="matrix(0.00657868 -0.999978 -0.999978 -0.00657868 90.108 142.103)" fill="#E2FF6F"/>
<circle r="1.07763" transform="matrix(0.00657868 -0.999978 -0.999978 -0.00657868 93.5559 138.747)" fill="#E2FF6F"/>
<circle r="1.07763" transform="matrix(0.00657868 -0.999978 -0.999978 -0.00657868 86.4541 138.7)" fill="#E2FF6F"/>
<circle r="1.07763" transform="matrix(0.00657868 -0.999978 -0.999978 -0.00657868 79.6664 138.655)" fill="#E2FF6F"/>
<circle r="1.07763" transform="matrix(0.00657868 -0.999978 -0.999978 -0.00657868 72.8791 138.611)" fill="#E2FF6F"/>
<circle r="1.07763" transform="matrix(0.00657868 -0.999978 -0.999978 -0.00657868 69.0281 141.964)" fill="#E2FF6F"/>
<circle r="1.07763" transform="matrix(0.00657868 -0.999978 -0.999978 -0.00657868 69.0743 134.95)" fill="#E2FF6F"/>
<circle r="1.07763" transform="matrix(0.00657868 -0.999978 -0.999978 -0.00657868 76.2594 134.997)" fill="#E2FF6F"/>
<circle r="1.07763" transform="matrix(0.00657868 -0.999978 -0.999978 -0.00657868 82.9689 135.041)" fill="#E2FF6F"/>
<circle r="1.07763" transform="matrix(0.00657868 -0.999978 -0.999978 -0.00657868 90.154 135.089)" fill="#E2FF6F"/>
<circle r="1.07763" transform="matrix(0.00657868 -0.999978 -0.999978 -0.00657868 93.6007 131.937)" fill="#E2FF6F"/>
<circle r="1.07763" transform="matrix(0.00657868 -0.999978 -0.999978 -0.00657868 86.4989 131.89)" fill="#E2FF6F"/>
<circle r="1.07763" transform="matrix(0.00657868 -0.999978 -0.999978 -0.00657868 79.7112 131.845)" fill="#E2FF6F"/>
<circle r="1.07763" transform="matrix(0.00657868 -0.999978 -0.999978 -0.00657868 72.6083 131.799)" fill="#E2FF6F"/>
<circle r="1.07763" transform="matrix(0.00657868 -0.999978 -0.999978 -0.00657868 69.5323 127.938)" fill="#E2FF6F"/>
<circle r="1.07763" transform="matrix(0.00657868 -0.999978 -0.999978 -0.00657868 72.9708 124.676)" fill="#E2FF6F"/>
<circle r="1.07763" transform="matrix(0.00657868 -0.999978 -0.999978 -0.00657868 76.3517 120.968)" fill="#E2FF6F"/>
<circle r="1.07763" transform="matrix(0.00657868 -0.999978 -0.999978 -0.00657868 79.8029 117.911)" fill="#E2FF6F"/>
<circle r="1.07763" transform="matrix(0.00657868 -0.999978 -0.999978 -0.00657868 83.1061 114.192)" fill="#E2FF6F"/>
<circle r="1.07763" transform="matrix(0.00657868 -0.999978 -0.999978 -0.00657868 86.6371 110.887)" fill="#E2FF6F"/>
<circle r="1.07763" transform="matrix(0.00657868 -0.999978 -0.999978 -0.00657868 90.3383 107.072)" fill="#E2FF6F"/>
<circle r="1.07763" transform="matrix(0.00657868 -0.999978 -0.999978 -0.00657868 76.3055 127.983)" fill="#E2FF6F"/>
<circle r="1.07763" transform="matrix(0.00657868 -0.999978 -0.999978 -0.00657868 83.0151 128.027)" fill="#E2FF6F"/>
<circle r="1.07763" transform="matrix(0.00657868 -0.999978 -0.999978 -0.00657868 90.2001 128.074)" fill="#E2FF6F"/>
<circle r="1.07763" transform="matrix(0.00657868 -0.999978 -0.999978 -0.00657868 93.6476 124.812)" fill="#E2FF6F"/>
<circle r="1.07763" transform="matrix(0.00657868 -0.999978 -0.999978 -0.00657868 86.5458 124.765)" fill="#E2FF6F"/>
<circle r="1.07763" transform="matrix(0.00657868 -0.999978 -0.999978 -0.00657868 90.2473 120.907)" fill="#E2FF6F"/>
<circle r="1.07763" transform="matrix(0.00657868 -0.999978 -0.999978 -0.00657868 93.6941 117.743)" fill="#E2FF6F"/>
<circle r="1.07763" transform="matrix(0.00657868 -0.999978 -0.999978 -0.00657868 93.7415 110.536)" fill="#E2FF6F"/>
<circle r="1.07763" transform="matrix(0.00657868 -0.999978 -0.999978 -0.00657868 90.2913 114.239)" fill="#E2FF6F"/>
<circle r="1.07763" transform="matrix(0.00657868 -0.999978 -0.999978 -0.00657868 86.5923 117.696)" fill="#E2FF6F"/>
<circle r="1.07763" transform="matrix(0.00657868 -0.999978 -0.999978 -0.00657868 83.0622 120.86)" fill="#E2FF6F"/>
<circle r="1.07763" transform="matrix(0.00657868 -0.999978 -0.999978 -0.00657868 79.7581 124.72)" fill="#E2FF6F"/>
<circle cx="1.57437" cy="105.851" r="1.07763" fill="#E2FF6F"/>
<circle cx="8.50931" cy="105.851" r="1.07763" fill="#E2FF6F"/>
<circle cx="12.0183" cy="102.425" r="1.07763" fill="#E2FF6F"/>
<circle cx="12.0186" cy="109.527" r="1.07763" fill="#E2FF6F"/>
<circle cx="15.4444" cy="105.851" r="1.07763" fill="#E2FF6F"/>
<circle cx="18.8282" cy="102.425" r="1.07763" fill="#E2FF6F"/>
<circle cx="22.63" cy="105.851" r="1.07763" fill="#E2FF6F"/>
<circle cx="18.8285" cy="109.527" r="1.07763" fill="#E2FF6F"/>
<circle cx="15.4446" cy="113.036" r="1.07763" fill="#E2FF6F"/>
<circle cx="22.6302" cy="113.036" r="1.07763" fill="#E2FF6F"/>
<circle cx="25.6385" cy="109.527" r="1.07763" fill="#E2FF6F"/>
<circle cx="29.2984" cy="113.036" r="1.07763" fill="#E2FF6F"/>
<circle cx="29.2987" cy="119.745" r="1.07763" fill="#E2FF6F"/>
<circle cx="33.0346" cy="116.314" r="1.07763" fill="#E2FF6F"/>
<circle cx="33.0343" cy="109.527" r="1.07763" fill="#E2FF6F"/>
<circle cx="36.5003" cy="105.85" r="1.07763" fill="#E2FF6F"/>
<circle cx="36.5005" cy="113.036" r="1.07763" fill="#E2FF6F"/>
<circle cx="39.8443" cy="109.526" r="1.07763" fill="#E2FF6F"/>
<circle cx="39.8446" cy="116.314" r="1.07763" fill="#E2FF6F"/>
<circle cx="43.1689" cy="113.035" r="1.07763" fill="#E2FF6F"/>
<circle cx="43.1686" cy="105.85" r="1.07763" fill="#E2FF6F"/>
<circle cx="46.9046" cy="102.424" r="1.07763" fill="#E2FF6F"/>
<circle cx="46.9048" cy="109.526" r="1.07763" fill="#E2FF6F"/>
<circle cx="46.9051" cy="116.314" r="1.07763" fill="#E2FF6F"/>
<circle cx="43.1692" cy="119.745" r="1.07763" fill="#E2FF6F"/>
<circle cx="46.9053" cy="123.101" r="1.07763" fill="#E2FF6F"/>
<circle cx="50.3362" cy="119.745" r="1.07763" fill="#E2FF6F"/>
<circle cx="50.336" cy="113.035" r="1.07763" fill="#E2FF6F"/>
<circle cx="50.3357" cy="105.85" r="1.07763" fill="#E2FF6F"/>
<circle cx="53.7146" cy="102.424" r="1.07763" fill="#E2FF6F"/>
<circle cx="53.7148" cy="109.526" r="1.07763" fill="#E2FF6F"/>
<circle cx="53.7151" cy="116.314" r="1.07763" fill="#E2FF6F"/>
<circle cx="53.7153" cy="123.101" r="1.07763" fill="#E2FF6F"/>
<circle cx="50.3365" cy="126.93" r="1.07763" fill="#E2FF6F"/>
<circle cx="57.3512" cy="126.93" r="1.07763" fill="#E2FF6F"/>
<circle cx="57.3509" cy="119.744" r="1.07763" fill="#E2FF6F"/>
<circle cx="57.3507" cy="113.035" r="1.07763" fill="#E2FF6F"/>
<circle cx="57.3504" cy="105.85" r="1.07763" fill="#E2FF6F"/>
<circle cx="60.5246" cy="102.424" r="1.07763" fill="#E2FF6F"/>
<circle cx="60.5248" cy="109.525" r="1.07763" fill="#E2FF6F"/>
<circle cx="60.5251" cy="116.313" r="1.07763" fill="#E2FF6F"/>
<circle cx="60.5253" cy="123.416" r="1.07763" fill="#E2FF6F"/>
<circle cx="64.3658" cy="126.518" r="1.07763" fill="#E2FF6F"/>
<circle cx="67.6506" cy="123.101" r="1.07763" fill="#E2FF6F"/>
<circle cx="71.3804" cy="119.744" r="1.07763" fill="#E2FF6F"/>
<circle cx="74.4602" cy="116.313" r="1.07763" fill="#E2FF6F"/>
<circle cx="78.2006" cy="113.034" r="1.07763" fill="#E2FF6F"/>
<circle cx="81.5288" cy="109.525" r="1.07763" fill="#E2FF6F"/>
<circle cx="85.3671" cy="105.848" r="1.07763" fill="#E2FF6F"/>
<circle cx="64.3656" cy="119.744" r="1.07763" fill="#E2FF6F"/>
<circle cx="64.3653" cy="113.035" r="1.07763" fill="#E2FF6F"/>
<circle cx="64.3651" cy="105.849" r="1.07763" fill="#E2FF6F"/>
<circle cx="67.6498" cy="102.423" r="1.07763" fill="#E2FF6F"/>
<circle cx="67.6501" cy="109.525" r="1.07763" fill="#E2FF6F"/>
<circle cx="71.532" cy="105.849" r="1.07763" fill="#E2FF6F"/>
<circle cx="74.7187" cy="102.423" r="1.07763" fill="#E2FF6F"/>
<circle cx="81.926" cy="102.423" r="1.07763" fill="#E2FF6F"/>
<circle cx="78.2003" cy="105.849" r="1.07763" fill="#E2FF6F"/>
<circle cx="74.719" cy="109.525" r="1.07763" fill="#E2FF6F"/>
<circle cx="71.5323" cy="113.034" r="1.07763" fill="#E2FF6F"/>
<circle cx="67.6504" cy="116.313" r="1.07763" fill="#E2FF6F"/>
<defs>
<linearGradient id="paint0_linear_121_2" x1="138.09" y1="52.932" x2="145.063" y2="43.0263" gradientUnits="userSpaceOnUse">
<stop stop-color="#D4F938"/>
<stop offset="0.104167" stop-color="#B6E842"/>
<stop offset="1" stop-color="#E1EEAB"/>
</linearGradient>
<linearGradient id="paint1_linear_121_2" x1="139.727" y1="36.1405" x2="139.727" y2="51.816" gradientUnits="userSpaceOnUse">
<stop stop-color="#E3FF6F" stop-opacity="0.69"/>
<stop offset="1" stop-color="#E3FF6F" stop-opacity="0.29"/>
</linearGradient>
<clipPath id="clip0_121_2">
<rect width="105.177" height="117.936" fill="white" transform="translate(65.3189 0.667816) rotate(3.87391)"/>
</clipPath>
<clipPath id="clip1_121_2">
<rect width="17.6821" height="17.7384" fill="white" transform="translate(88.1053 2.21082) rotate(3.87391)"/>
</clipPath>
<clipPath id="clip2_121_2">
<rect width="10.237" height="10.2696" fill="white" transform="translate(152.803 113.989) rotate(3.87391)"/>
</clipPath>
</defs>
</svg>
